<?xml version="1.0" encoding="utf-8"?>
<!-- Generator: Adobe Illustrator 22.0.0, SVG Export Plug-In . SVG Version: 6.00 Build 0)  -->
<svg version="1.1" id="圖層_1" xmlns="http://www.w3.org/2000/svg" xmlns:xlink="http://www.w3.org/1999/xlink" x="0px" y="0px"
	 viewBox="0 0 707.1 710.2" style="enable-background:new 0 0 707.1 710.2;" xml:space="preserve">
<style type="text/css">
	.st0{fill:none;stroke:#111111;stroke-width:14;stroke-miterlimit:10;}
</style>
<path class="st0" d="M258.7,260.2C89.7,318.2,7.6,699.6,7.6,699.6c33.8,38.6,420.1-251.1,420.1-251.1
	C466.3,414.7,432.5,197.5,258.7,260.2z"/>
<path class="st0" d="M191.1,545.1c-9.7-33.8-43.5-53.1-77.3-43.5"/>
<path class="st0" d="M229.7,482.3c-9.7-33.8-48.3-53.1-82.1-43.5"/>
<path class="st0" d="M287.6,409.9c-9.7-33.8-57.9-48.3-101.4-33.8"/>
<path class="st0" d="M340.8,361.6c0-33.8-43.5-57.9-91.7-53.1"/>
<path class="st0" d="M311.8,207.1c0,0,9.7-120.7,72.4-183.5s82.1,72.4,82.1,72.4s57.9-82.1,96.6-43.5C601.5,18.8,756-44,635.3,125
	c-91.7,91.7-91.7,101.4-91.7,101.4s-48.3,43.5,91.7-19.3s9.7,149.7,9.7,149.7l-178.7,9.7L311.8,207.1z"/>
</svg>
