<?xml version="1.0" encoding="utf-8"?>
<!-- Generator: Adobe Illustrator 22.0.0, SVG Export Plug-In . SVG Version: 6.00 Build 0)  -->
<svg version="1.1" id="圖層_1" xmlns="http://www.w3.org/2000/svg" xmlns:xlink="http://www.w3.org/1999/xlink" x="0px" y="0px"
	 viewBox="0 0 768 1366" style="enable-background:new 0 0 768 1366;" xml:space="preserve">
<style type="text/css">
	.st0{fill:#111111;}
	.st1{fill:none;stroke:#111111;stroke-width:13;stroke-miterlimit:10;}
</style>
<g>
	<g>
		<path class="st0" d="M295.7,956.6c-17.9-8.4-32.5-23.4-42.5-41c-9.9-17.8-15.2-38.4-15.1-59.1c0-20.7,5.3-41.3,15.3-59.1
			c10.1-17.7,24.6-32.6,42.5-41l1.3,1.3c-6.3,6.5-12.1,13.8-17,21.3c-5,7.7-9.3,15.8-12.7,24.1c-6.9,16.9-10.4,35-10.3,53.2
			c-0.1,18.1,3.4,36.4,10.3,53.2c3.4,8.4,7.8,16.5,12.7,24.1c5,7.7,10.7,14.8,17,21.3L295.7,956.6L295.7,956.6z"/>
	</g>
	<path class="st1" d="M486.7,336L428,211.2c-66.4-11.3-96.1,54.4-74.8,70.5c0,0,35.1,19.8,17.8,71.5c-12.5,37.4-1.2,42.2-16.6,58
		c-60.2,64.8-50.3,185.9-27.2,188.1c7.3,0.7,15-9.7,22.6-23.5c9.4,55.8,32.1,110-72.9,141c-119.7,77.4-46.5,277,12,298.2
		c58.5,21.2,148.3-77.8,200.2-221.3c23-63.7,40.7-143.1,43.8-216.4c45.8,65.2,52.9-79.5,39.5-122.4c-11.2-36.1-11.6-25.1-43.5-80.8
		C489.3,305,508.7,382.3,486.7,336z"/>
	<path class="st1" d="M485.3,320l-59.9-111.8c-34.1-34.2-96.1,54.4-74.8,70.5c0,0,38.8,21.1,17.8,71.5c-16.9,40.6-19.6,55.1-16.6,58
		c-60.2,64.8-50.3,185.9-27.2,188.1c29.4,2.9,65.5-175.7,75.5-28.3c5.5,81.8,83-95.8,104-45c69,167.2,81.2-21.1,65.6-71.2
		c-11.2-36.1,6.4-41.4-39-86.8C510.4,344.6,494.7,341.3,485.3,320z"/>
</g>
</svg>
