<?xml version="1.0" encoding="utf-8"?>
<!-- Generator: Adobe Illustrator 22.0.0, SVG Export Plug-In . SVG Version: 6.00 Build 0)  -->
<svg version="1.1" id="_x35_66af192-e4de-4226-9be2-537ffa7cb0ca"
	 xmlns="http://www.w3.org/2000/svg" xmlns:xlink="http://www.w3.org/1999/xlink" x="0px" y="0px" viewBox="0 0 1563 93.5"
	 style="enable-background:new 0 0 1563 93.5;" xml:space="preserve">
<style type="text/css">
	.st0{fill:#FFDDDE;}
	.st1{opacity:0.68;fill:url(#SVGID_1_);}
	.st2{opacity:0.25;}
	.st3{fill:url(#SVGID_2_);}
	.st4{opacity:0.68;}
	.st5{fill:url(#SVGID_3_);}
	.st6{fill:url(#SVGID_4_);}
	.st7{fill:url(#SVGID_5_);}
	.st8{fill:url(#SVGID_6_);}
	.st9{fill:url(#SVGID_7_);}
	.st10{opacity:0.35;}
	.st11{fill:url(#SVGID_8_);}
	.st12{fill:url(#SVGID_9_);}
	.st13{fill:url(#SVGID_10_);}
	.st14{opacity:0.25;fill:#FFDDDE;}
	.st15{fill:url(#SVGID_11_);}
	.st16{opacity:0.54;}
	.st17{fill:url(#SVGID_12_);}
	.st18{fill:url(#SVGID_13_);}
	.st19{fill:url(#SVGID_14_);}
	.st20{opacity:0.46;}
	.st21{fill:url(#SVGID_15_);}
	.st22{fill:url(#SVGID_16_);}
	.st23{fill:url(#SVGID_17_);}
	.st24{fill:url(#SVGID_18_);}
	.st25{fill:url(#SVGID_19_);}
	.st26{fill:url(#SVGID_20_);}
	.st27{fill:url(#SVGID_21_);}
	.st28{fill:url(#SVGID_22_);}
	.st29{fill:url(#SVGID_23_);}
	.st30{fill:url(#SVGID_24_);}
	.st31{fill:url(#SVGID_25_);}
	.st32{fill:url(#SVGID_26_);}
	.st33{fill:url(#SVGID_27_);}
	.st34{fill:url(#SVGID_28_);}
	.st35{fill:url(#SVGID_29_);}
	.st36{fill:url(#SVGID_30_);}
	.st37{fill:url(#SVGID_31_);}
	.st38{fill:url(#SVGID_32_);}
</style>
<title>m</title>
<path class="st0" d="M-134.8,48.1c0,0-84.5,73-79.9,114.9c-46.1-5.8,26.1,68,58.4,69.4c32.3,1.4-24.6-70.1,38.4-70.1
	s107.6-31.1,75.3-62.9S-134.8,48.1-134.8,48.1z"/>
<linearGradient id="SVGID_1_" gradientUnits="userSpaceOnUse" x1="742.0408" y1="-161.8345" x2="688.597" y2="-192.6903" gradientTransform="matrix(-0.942 -1.6713 1.1702 -0.6596 758.2949 1175.5254)">
	<stop  offset="9.158416e-02" style="stop-color:#FC1F26"/>
	<stop  offset="0.2599" style="stop-color:#FC3B1E"/>
	<stop  offset="0.4851" style="stop-color:#FFA200"/>
	<stop  offset="0.7574" style="stop-color:#FED9DB"/>
</linearGradient>
<path class="st1" d="M-31.7,145.4l-166.3-4c0,0-41.9-32.9,35.4-100.8C-3.9,73-31.7,145.4-31.7,145.4z"/>
<g class="st2">
	<path class="st0" d="M-15.3,92.3c0,0,131.9,61.1,41.7,127.4s-117.9-12.2-105.2-52.5S-15.3,92.3-15.3,92.3z"/>
	<path class="st0" d="M56.2,168.9l-152.6-3.8c0,0-38.4-31.4,32.4-96.2C81.7,99.8,56.2,168.9,56.2,168.9z"/>
</g>
<g>
	<path class="st0" d="M73.4,54.1c0,0,131.9,61.1,41.7,127.4S-2.9,169.3,9.8,129S73.4,54.1,73.4,54.1z"/>
	
		<linearGradient id="SVGID_2_" gradientUnits="userSpaceOnUse" x1="699.579" y1="-38.5714" x2="648.702" y2="-67.9453" gradientTransform="matrix(-0.942 -1.6713 1.1702 -0.6596 758.2949 1175.5254)">
		<stop  offset="9.158416e-02" style="stop-color:#FC1F26"/>
		<stop  offset="0.2599" style="stop-color:#FC3B1E"/>
		<stop  offset="0.4851" style="stop-color:#FFA200"/>
		<stop  offset="0.7574" style="stop-color:#FED9DB"/>
	</linearGradient>
	<path class="st3" d="M144.9,130.6l-152.6-3.8c0,0-38.4-31.4,32.4-96.2C170.4,61.5,144.9,130.6,144.9,130.6z"/>
</g>
<g class="st4">
	<path class="st0" d="M155.7,66.6c0,0,131.9,61.1,41.7,127.4S79.5,181.9,92.2,141.6S155.7,66.6,155.7,66.6z"/>
	
		<linearGradient id="SVGID_3_" gradientUnits="userSpaceOnUse" x1="672.7963" y1="10.2393" x2="621.9192" y2="-19.1346" gradientTransform="matrix(-0.942 -1.6713 1.1702 -0.6596 758.2949 1175.5254)">
		<stop  offset="9.158416e-02" style="stop-color:#FC1F26"/>
		<stop  offset="0.2599" style="stop-color:#FC3B1E"/>
		<stop  offset="0.4851" style="stop-color:#FFA200"/>
		<stop  offset="0.7574" style="stop-color:#FED9DB"/>
	</linearGradient>
	<path class="st5" d="M227.2,143.2l-152.6-3.8c0,0-38.4-31.4,32.4-96.2C252.7,74.1,227.2,143.2,227.2,143.2z"/>
</g>
<g class="st2">
	<path class="st0" d="M266.4,49c0,0,131.9,61.1,41.7,127.4S190.2,164.3,202.8,124C215.5,83.7,266.4,49,266.4,49z"/>
	<path class="st0" d="M337.9,125.6l-152.6-3.8c0,0-38.4-31.4,32.4-96.2C363.4,56.4,337.9,125.6,337.9,125.6z"/>
</g>
<g>
	<path class="st0" d="M387.8,100.7c0,0,131.9,61.1,41.7,127.4s-117.9-12.2-105.2-52.5C336.9,135.4,387.8,100.7,387.8,100.7z"/>
	
		<linearGradient id="SVGID_4_" gradientUnits="userSpaceOnUse" x1="597.9196" y1="148.3153" x2="547.0425" y2="118.9414" gradientTransform="matrix(-0.942 -1.6713 1.1702 -0.6596 758.2949 1175.5254)">
		<stop  offset="9.158416e-02" style="stop-color:#FC1F26"/>
		<stop  offset="0.2599" style="stop-color:#FC3B1E"/>
		<stop  offset="0.4851" style="stop-color:#FFA200"/>
		<stop  offset="0.7574" style="stop-color:#FED9DB"/>
	</linearGradient>
	<path class="st6" d="M459.3,177.3l-152.6-3.8c0,0-38.4-31.4,32.4-96.2C484.8,108.1,459.3,177.3,459.3,177.3z"/>
</g>
<path class="st0" d="M454,53.9c0,0-84.5,73-79.9,114.9c-46.1-5.8,26.1,68,58.4,69.4c32.3,1.4-24.6-70.1,38.4-70.1
	s107.6-31.1,75.3-62.9S454,53.9,454,53.9z"/>
<linearGradient id="SVGID_5_" gradientUnits="userSpaceOnUse" x1="585.9556" y1="261.9095" x2="532.5118" y2="231.0537" gradientTransform="matrix(-0.942 -1.6713 1.1702 -0.6596 758.2949 1175.5254)">
	<stop  offset="9.158416e-02" style="stop-color:#FC1F26"/>
	<stop  offset="0.2599" style="stop-color:#FC3B1E"/>
	<stop  offset="0.4851" style="stop-color:#FFA200"/>
	<stop  offset="0.7574" style="stop-color:#FED9DB"/>
</linearGradient>
<path class="st7" d="M611.2,126.8l-166.3-4c0,0-41.9-32.9,35.4-100.8C639,54.3,611.2,126.8,611.2,126.8z"/>
<g>
	<path class="st0" d="M573.5,85.2c0,0,131.9,61.1,41.7,127.4S497.3,200.4,510,160.1S573.5,85.2,573.5,85.2z"/>
	
		<linearGradient id="SVGID_6_" gradientUnits="userSpaceOnUse" x1="557.4318" y1="274.4278" x2="506.5547" y2="245.0539" gradientTransform="matrix(-0.942 -1.6713 1.1702 -0.6596 758.2949 1175.5254)">
		<stop  offset="9.158416e-02" style="stop-color:#FC1F26"/>
		<stop  offset="0.2599" style="stop-color:#FC3B1E"/>
		<stop  offset="0.4851" style="stop-color:#FFA200"/>
		<stop  offset="0.7574" style="stop-color:#FED9DB"/>
	</linearGradient>
	<path class="st8" d="M645,161.7l-152.6-3.8c0,0-38.4-31.4,32.4-96.2C670.5,92.6,645,161.7,645,161.7z"/>
</g>
<g>
	<path class="st0" d="M662.2,46.9c0,0,131.9,61.1,41.7,127.4S586,162.2,598.6,121.9C611.3,81.6,662.2,46.9,662.2,46.9z"/>
	
		<linearGradient id="SVGID_7_" gradientUnits="userSpaceOnUse" x1="552.1246" y1="345.9067" x2="501.2476" y2="316.5328" gradientTransform="matrix(-0.942 -1.6713 1.1702 -0.6596 758.2949 1175.5254)">
		<stop  offset="9.158416e-02" style="stop-color:#FC1F26"/>
		<stop  offset="0.2599" style="stop-color:#FC3B1E"/>
		<stop  offset="0.4851" style="stop-color:#FFA200"/>
		<stop  offset="0.7574" style="stop-color:#FED9DB"/>
	</linearGradient>
	<path class="st9" d="M733.7,123.5l-152.6-3.8c0,0-38.4-31.4,32.4-96.2C759.2,54.3,733.7,123.5,733.7,123.5z"/>
</g>
<g class="st10">
	<path class="st0" d="M744.5,59.5c0,0,131.9,61.1,41.7,127.4S668.3,174.7,681,134.4S744.5,59.5,744.5,59.5z"/>
	
		<linearGradient id="SVGID_8_" gradientUnits="userSpaceOnUse" x1="525.3419" y1="394.7173" x2="474.4648" y2="365.3435" gradientTransform="matrix(-0.942 -1.6713 1.1702 -0.6596 758.2949 1175.5254)">
		<stop  offset="9.158416e-02" style="stop-color:#FC1F26"/>
		<stop  offset="0.2599" style="stop-color:#FC3B1E"/>
		<stop  offset="0.4851" style="stop-color:#FFA200"/>
		<stop  offset="0.7574" style="stop-color:#FED9DB"/>
	</linearGradient>
	<path class="st11" d="M816,136l-152.6-3.8c0,0-38.4-31.4,32.4-96.2C841.5,66.9,816,136,816,136z"/>
</g>
<g class="st4">
	<path class="st0" d="M855.2,41.9c0,0,131.9,61.1,41.7,127.4S779,157.1,791.6,116.8C804.3,76.5,855.2,41.9,855.2,41.9z"/>
	
		<linearGradient id="SVGID_9_" gradientUnits="userSpaceOnUse" x1="505.0197" y1="472.937" x2="454.1427" y2="443.563" gradientTransform="matrix(-0.942 -1.6713 1.1702 -0.6596 758.2949 1175.5254)">
		<stop  offset="9.158416e-02" style="stop-color:#FC1F26"/>
		<stop  offset="0.2599" style="stop-color:#FC3B1E"/>
		<stop  offset="0.4851" style="stop-color:#FFA200"/>
		<stop  offset="0.7574" style="stop-color:#FED9DB"/>
	</linearGradient>
	<path class="st12" d="M926.7,118.4l-152.6-3.8c0,0-38.4-31.4,32.4-96.2C952.2,49.3,926.7,118.4,926.7,118.4z"/>
</g>
<g>
	<path class="st0" d="M976.6,101.2c0,0,131.9,61.1,41.7,127.4C928,295,900.4,216.5,913.1,176.2C925.7,135.9,976.6,101.2,976.6,101.2
		z"/>
	
		<linearGradient id="SVGID_10_" gradientUnits="userSpaceOnUse" x1="446.9856" y1="529.9922" x2="396.1085" y2="500.6183" gradientTransform="matrix(-0.942 -1.6713 1.1702 -0.6596 758.2949 1175.5254)">
		<stop  offset="9.158416e-02" style="stop-color:#FC1F26"/>
		<stop  offset="0.2599" style="stop-color:#FC3B1E"/>
		<stop  offset="0.4851" style="stop-color:#FFA200"/>
		<stop  offset="0.7574" style="stop-color:#FED9DB"/>
	</linearGradient>
	<path class="st13" d="M1048.1,177.8L895.5,174c0,0-38.4-31.4,32.4-96.2C1073.6,108.6,1048.1,177.8,1048.1,177.8z"/>
</g>
<path class="st14" d="M912.6,30.5c0,0-84.5,73-79.9,114.9c-46.1-5.8,26.1,68,58.4,69.4c32.3,1.4-24.6-70.1,38.4-70.1
	s107.6-31.1,75.3-62.9C972.6,50.1,912.6,30.5,912.6,30.5z"/>
<g>
	<path class="st0" d="M1021.5,90.8c0,0,134.9,62.5,42.6,130.3s-120.5-12.5-107.5-53.7S1021.5,90.8,1021.5,90.8z"/>
	
		<linearGradient id="SVGID_11_" gradientUnits="userSpaceOnUse" x1="440.5258" y1="562.8284" x2="388.5145" y2="532.7997" gradientTransform="matrix(-0.942 -1.6713 1.1702 -0.6596 758.2949 1175.5254)">
		<stop  offset="9.158416e-02" style="stop-color:#FC1F26"/>
		<stop  offset="0.2599" style="stop-color:#FC3B1E"/>
		<stop  offset="0.4851" style="stop-color:#FFA200"/>
		<stop  offset="0.7574" style="stop-color:#FED9DB"/>
	</linearGradient>
	<path class="st15" d="M1094.7,169.1l-156-3.9c0,0-39.3-32.1,33.2-98.4C1120.7,98.4,1094.7,169.1,1094.7,169.1z"/>
</g>
<g class="st16">
	<path class="st0" d="M1112.2,51.7c0,0,134.9,62.5,42.6,130.3c-92.3,67.8-120.5-12.5-107.5-53.7
		C1060.2,87.1,1112.2,51.7,1112.2,51.7z"/>
	
		<linearGradient id="SVGID_12_" gradientUnits="userSpaceOnUse" x1="435.1003" y1="635.9008" x2="383.089" y2="605.8721" gradientTransform="matrix(-0.942 -1.6713 1.1702 -0.6596 758.2949 1175.5254)">
		<stop  offset="9.158416e-02" style="stop-color:#FC1F26"/>
		<stop  offset="0.2599" style="stop-color:#FC3B1E"/>
		<stop  offset="0.4851" style="stop-color:#FFA200"/>
		<stop  offset="0.7574" style="stop-color:#FED9DB"/>
	</linearGradient>
	<path class="st17" d="M1185.3,130l-156-3.9c0,0-39.3-32.1,33.2-98.4C1211.3,59.3,1185.3,130,1185.3,130z"/>
</g>
<g>
	<path class="st0" d="M1196.3,64.6c0,0,134.9,62.5,42.6,130.3s-120.5-12.5-107.5-53.7C1144.3,100,1196.3,64.6,1196.3,64.6z"/>
	
		<linearGradient id="SVGID_13_" gradientUnits="userSpaceOnUse" x1="407.7205" y1="685.7997" x2="355.7091" y2="655.7709" gradientTransform="matrix(-0.942 -1.6713 1.1702 -0.6596 758.2949 1175.5254)">
		<stop  offset="9.158416e-02" style="stop-color:#FC1F26"/>
		<stop  offset="0.2599" style="stop-color:#FC3B1E"/>
		<stop  offset="0.4851" style="stop-color:#FFA200"/>
		<stop  offset="0.7574" style="stop-color:#FED9DB"/>
	</linearGradient>
	<path class="st18" d="M1269.5,142.8l-156-3.9c0,0-39.3-32.1,33.2-98.4C1295.5,72.2,1269.5,142.8,1269.5,142.8z"/>
</g>
<g>
	<path class="st0" d="M1309.5,46.5c0,0,134.9,62.5,42.6,130.3s-120.5-12.5-107.5-53.7C1257.5,82,1309.5,46.5,1309.5,46.5z"/>
	
		<linearGradient id="SVGID_14_" gradientUnits="userSpaceOnUse" x1="386.9453" y1="765.7631" x2="334.934" y2="735.7344" gradientTransform="matrix(-0.942 -1.6713 1.1702 -0.6596 758.2949 1175.5254)">
		<stop  offset="9.158416e-02" style="stop-color:#FC1F26"/>
		<stop  offset="0.2599" style="stop-color:#FC3B1E"/>
		<stop  offset="0.4851" style="stop-color:#FFA200"/>
		<stop  offset="0.7574" style="stop-color:#FED9DB"/>
	</linearGradient>
	<path class="st19" d="M1382.6,124.8l-156-3.9c0,0-39.3-32.1,33.2-98.4C1408.7,54.1,1382.6,124.8,1382.6,124.8z"/>
</g>
<g class="st20">
	<path class="st0" d="M1433.6,76.6c0,0,134.9,62.5,42.6,130.3c-92.3,67.8-120.5-12.5-107.5-53.7S1433.6,76.6,1433.6,76.6z"/>
	
		<linearGradient id="SVGID_15_" gradientUnits="userSpaceOnUse" x1="341.5436" y1="835.3015" x2="289.5323" y2="805.2728" gradientTransform="matrix(-0.942 -1.6713 1.1702 -0.6596 758.2949 1175.5254)">
		<stop  offset="9.158416e-02" style="stop-color:#FC1F26"/>
		<stop  offset="0.2599" style="stop-color:#FC3B1E"/>
		<stop  offset="0.4851" style="stop-color:#FFA200"/>
		<stop  offset="0.7574" style="stop-color:#FED9DB"/>
	</linearGradient>
	<path class="st21" d="M1506.7,154.8l-156-3.9c0,0-39.3-32.1,33.2-98.4C1532.8,84.1,1506.7,154.8,1506.7,154.8z"/>
</g>
<g class="st4">
	<path class="st0" d="M279.3,52.6c0,0,134.9,62.5,42.6,130.3s-120.5-12.5-107.5-53.7S279.3,52.6,279.3,52.6z"/>
	
		<linearGradient id="SVGID_16_" gradientUnits="userSpaceOnUse" x1="647.8542" y1="95.4367" x2="595.8429" y2="65.408" gradientTransform="matrix(-0.942 -1.6713 1.1702 -0.6596 758.2949 1175.5254)">
		<stop  offset="9.158416e-02" style="stop-color:#FC1F26"/>
		<stop  offset="0.2599" style="stop-color:#FC3B1E"/>
		<stop  offset="0.4851" style="stop-color:#FFA200"/>
		<stop  offset="0.7574" style="stop-color:#FED9DB"/>
	</linearGradient>
	<path class="st22" d="M352.4,130.9l-156-3.9c0,0-39.3-32.1,33.2-98.4C378.5,60.2,352.4,130.9,352.4,130.9z"/>
</g>
<g class="st10">
	<path class="st0" d="M388,39.7c0,0,134.9,62.5,42.6,130.3s-120.5-12.5-107.5-53.7S388,39.7,388,39.7z"/>
	
		<linearGradient id="SVGID_17_" gradientUnits="userSpaceOnUse" x1="625.8857" y1="170.6367" x2="573.8744" y2="140.608" gradientTransform="matrix(-0.942 -1.6713 1.1702 -0.6596 758.2949 1175.5254)">
		<stop  offset="9.158416e-02" style="stop-color:#FC1F26"/>
		<stop  offset="0.2599" style="stop-color:#FC3B1E"/>
		<stop  offset="0.4851" style="stop-color:#FFA200"/>
		<stop  offset="0.7574" style="stop-color:#FED9DB"/>
	</linearGradient>
	<path class="st23" d="M461.1,118l-156-3.9c0,0-39.3-32.1,33.2-98.4C487.2,47.3,461.1,118,461.1,118z"/>
</g>
<g>
	<path class="st0" d="M1506.1,157.7c0,0,131.9,61.1,41.7,127.4s-117.9-12.2-105.2-52.5S1506.1,157.7,1506.1,157.7z"/>
	
		<linearGradient id="SVGID_18_" gradientUnits="userSpaceOnUse" x1="285.8216" y1="852.7711" x2="234.9446" y2="823.3972" gradientTransform="matrix(-0.942 -1.6713 1.1702 -0.6596 758.2949 1175.5254)">
		<stop  offset="9.158416e-02" style="stop-color:#FC1F26"/>
		<stop  offset="0.2599" style="stop-color:#FC3B1E"/>
		<stop  offset="0.4851" style="stop-color:#FFA200"/>
		<stop  offset="0.7574" style="stop-color:#FED9DB"/>
	</linearGradient>
	<path class="st24" d="M1577.6,234.2l-152.6-3.8c0,0-38.4-31.4,32.4-96.2C1603.1,165.1,1577.6,234.2,1577.6,234.2z"/>
</g>
<path class="st0" d="M1572.3,110.9c0,0-84.5,73-79.9,114.9c-46.1-5.8,26.1,68,58.4,69.4c32.3,1.4-24.6-70.1,38.4-70.1
	s107.6-31.1,75.3-62.9C1632.3,130.4,1572.3,110.9,1572.3,110.9z"/>
<linearGradient id="SVGID_19_" gradientUnits="userSpaceOnUse" x1="273.8577" y1="966.3654" x2="220.4138" y2="935.5095" gradientTransform="matrix(-0.942 -1.6713 1.1702 -0.6596 758.2949 1175.5254)">
	<stop  offset="9.158416e-02" style="stop-color:#FC1F26"/>
	<stop  offset="0.2599" style="stop-color:#FC3B1E"/>
	<stop  offset="0.4851" style="stop-color:#FFA200"/>
	<stop  offset="0.7574" style="stop-color:#FED9DB"/>
</linearGradient>
<path class="st25" d="M1729.5,183.7l-166.3-4c0,0-41.9-32.9,35.4-100.8C1757.3,111.3,1729.5,183.7,1729.5,183.7z"/>
<g>
	<path class="st0" d="M1691.8,142.1c0,0,131.9,61.1,41.7,127.4s-117.9-12.2-105.2-52.5S1691.8,142.1,1691.8,142.1z"/>
	
		<linearGradient id="SVGID_20_" gradientUnits="userSpaceOnUse" x1="245.3338" y1="978.8836" x2="194.4568" y2="949.5097" gradientTransform="matrix(-0.942 -1.6713 1.1702 -0.6596 758.2949 1175.5254)">
		<stop  offset="9.158416e-02" style="stop-color:#FC1F26"/>
		<stop  offset="0.2599" style="stop-color:#FC3B1E"/>
		<stop  offset="0.4851" style="stop-color:#FFA200"/>
		<stop  offset="0.7574" style="stop-color:#FED9DB"/>
	</linearGradient>
	<path class="st26" d="M1763.4,218.7l-152.6-3.8c0,0-38.4-31.4,32.4-96.2C1788.9,149.6,1763.4,218.7,1763.4,218.7z"/>
</g>
<g class="st20">
	<path class="st0" d="M1780.5,103.9c0,0,131.9,61.1,41.7,127.4c-90.3,66.3-117.9-12.2-105.2-52.5
		C1729.6,138.5,1780.5,103.9,1780.5,103.9z"/>
	
		<linearGradient id="SVGID_21_" gradientUnits="userSpaceOnUse" x1="240.0267" y1="1050.3624" x2="189.1496" y2="1020.9886" gradientTransform="matrix(-0.942 -1.6713 1.1702 -0.6596 758.2949 1175.5254)">
		<stop  offset="9.158416e-02" style="stop-color:#FC1F26"/>
		<stop  offset="0.2599" style="stop-color:#FC3B1E"/>
		<stop  offset="0.4851" style="stop-color:#FFA200"/>
		<stop  offset="0.7574" style="stop-color:#FED9DB"/>
	</linearGradient>
	<path class="st27" d="M1852,180.4l-152.6-3.8c0,0-38.4-31.4,32.4-96.2C1877.5,111.3,1852,180.4,1852,180.4z"/>
</g>
<g>
	<path class="st0" d="M1506.3,96.7c0,0,134.9,62.5,42.6,130.3c-92.3,67.8-120.5-12.5-107.5-53.7
		C1454.3,132.1,1506.3,96.7,1506.3,96.7z"/>
	
		<linearGradient id="SVGID_22_" gradientUnits="userSpaceOnUse" x1="313.7878" y1="875.0925" x2="261.7765" y2="845.0638" gradientTransform="matrix(-0.942 -1.6713 1.1702 -0.6596 758.2949 1175.5254)">
		<stop  offset="9.158416e-02" style="stop-color:#FC1F26"/>
		<stop  offset="0.2599" style="stop-color:#FC3B1E"/>
		<stop  offset="0.4851" style="stop-color:#FFA200"/>
		<stop  offset="0.7574" style="stop-color:#FED9DB"/>
	</linearGradient>
	<path class="st28" d="M1579.4,175l-156-3.9c0,0-39.3-32.1,33.2-98.4C1605.5,104.3,1579.4,175,1579.4,175z"/>
</g>
<polygon class="st0" points="81.4,184 249.4,110.2 571,130.4 785.5,246.3 243.6,246.3 "/>
<polygon class="st14" points="214.5,182.9 890.8,53.2 1324.8,81 1463.9,199.1 166.6,256.5 195.4,188.2 "/>
<polygon class="st14" points="-462.5,179 -143.3,91.3 375.1,134.2 613.1,189.8 550.4,206.8 -551,205.7 "/>
<polygon class="st0" points="-291.8,155.6 164.9,66.5 327.9,108.2 324.5,171.2 -198.5,171.2 "/>
<polygon class="st14" points="105.9,208 782.2,78.3 1216.2,106.1 1355.3,224.2 57.9,281.6 86.7,213.3 "/>
<g>
	<path class="st0" d="M969.9,39c0,0,131.9,61.1,41.7,127.4s-117.9-12.2-105.2-52.5S969.9,39,969.9,39z"/>
	
		<linearGradient id="SVGID_23_" gradientUnits="userSpaceOnUse" x1="476.9456" y1="548.4091" x2="426.0685" y2="519.0352" gradientTransform="matrix(-0.942 -1.6713 1.1702 -0.6596 758.2949 1175.5254)">
		<stop  offset="9.158416e-02" style="stop-color:#FC1F26"/>
		<stop  offset="0.2599" style="stop-color:#FC3B1E"/>
		<stop  offset="0.4851" style="stop-color:#FFA200"/>
		<stop  offset="0.7574" style="stop-color:#FED9DB"/>
	</linearGradient>
	<path class="st29" d="M1041.5,115.5l-152.6-3.8c0,0-38.4-31.4,32.4-96.2C1066.9,46.4,1041.5,115.5,1041.5,115.5z"/>
</g>
<g class="st4">
	<path class="st0" d="M1052.3,51.6c0,0,131.9,61.1,41.7,127.4s-117.9-12.2-105.2-52.5C1001.4,86.2,1052.3,51.6,1052.3,51.6z"/>
	
		<linearGradient id="SVGID_24_" gradientUnits="userSpaceOnUse" x1="450.1628" y1="597.2198" x2="399.2857" y2="567.8459" gradientTransform="matrix(-0.942 -1.6713 1.1702 -0.6596 758.2949 1175.5254)">
		<stop  offset="9.158416e-02" style="stop-color:#FC1F26"/>
		<stop  offset="0.2599" style="stop-color:#FC3B1E"/>
		<stop  offset="0.4851" style="stop-color:#FFA200"/>
		<stop  offset="0.7574" style="stop-color:#FED9DB"/>
	</linearGradient>
	<path class="st30" d="M1123.8,128.1l-152.6-3.8c0,0-38.4-31.4,32.4-96.2C1149.3,59,1123.8,128.1,1123.8,128.1z"/>
</g>
<g class="st2">
	<path class="st0" d="M1163,33.9c0,0,131.9,61.1,41.7,127.4c-90.3,66.3-117.9-12.2-105.2-52.5C1112.1,68.6,1163,33.9,1163,33.9z"/>
	<path class="st0" d="M1234.5,110.5l-152.6-3.8c0,0-38.4-31.4,32.4-96.2C1260,41.4,1234.5,110.5,1234.5,110.5z"/>
</g>
<g>
	<path class="st0" d="M1284.4,85.6c0,0,131.9,61.1,41.7,127.4c-90.3,66.3-117.9-12.2-105.2-52.5S1284.4,85.6,1284.4,85.6z"/>
	
		<linearGradient id="SVGID_25_" gradientUnits="userSpaceOnUse" x1="375.2861" y1="735.2958" x2="324.409" y2="705.9219" gradientTransform="matrix(-0.942 -1.6713 1.1702 -0.6596 758.2949 1175.5254)">
		<stop  offset="9.158416e-02" style="stop-color:#FC1F26"/>
		<stop  offset="0.2599" style="stop-color:#FC3B1E"/>
		<stop  offset="0.4851" style="stop-color:#FFA200"/>
		<stop  offset="0.7574" style="stop-color:#FED9DB"/>
	</linearGradient>
	<path class="st31" d="M1355.9,162.2l-152.6-3.8c0,0-38.4-31.4,32.4-96.2C1381.4,93,1355.9,162.2,1355.9,162.2z"/>
</g>
<path class="st0" d="M1350.6,38.8c0,0-84.5,73-79.9,114.9c-46.1-5.8,26.1,68,58.4,69.4c32.3,1.4-24.6-70.1,38.4-70.1
	c63,0,107.6-31.1,75.3-62.9C1410.5,58.4,1350.6,38.8,1350.6,38.8z"/>
<linearGradient id="SVGID_26_" gradientUnits="userSpaceOnUse" x1="363.3221" y1="848.89" x2="309.8783" y2="818.0342" gradientTransform="matrix(-0.942 -1.6713 1.1702 -0.6596 758.2949 1175.5254)">
	<stop  offset="9.158416e-02" style="stop-color:#FC1F26"/>
	<stop  offset="0.2599" style="stop-color:#FC3B1E"/>
	<stop  offset="0.4851" style="stop-color:#FFA200"/>
	<stop  offset="0.7574" style="stop-color:#FED9DB"/>
</linearGradient>
<path class="st32" d="M1507.8,111.7l-166.3-4c0,0-41.9-32.9,35.4-100.8C1535.6,39.3,1507.8,111.7,1507.8,111.7z"/>
<g>
	<path class="st0" d="M1470.1,70.1c0,0,131.9,61.1,41.7,127.4c-90.3,66.3-117.9-12.2-105.2-52.5
		C1419.2,104.8,1470.1,70.1,1470.1,70.1z"/>
	
		<linearGradient id="SVGID_27_" gradientUnits="userSpaceOnUse" x1="334.7983" y1="861.4083" x2="283.9212" y2="832.0344" gradientTransform="matrix(-0.942 -1.6713 1.1702 -0.6596 758.2949 1175.5254)">
		<stop  offset="9.158416e-02" style="stop-color:#FC1F26"/>
		<stop  offset="0.2599" style="stop-color:#FC3B1E"/>
		<stop  offset="0.4851" style="stop-color:#FFA200"/>
		<stop  offset="0.7574" style="stop-color:#FED9DB"/>
	</linearGradient>
	<path class="st33" d="M1541.6,146.7l-152.6-3.8c0,0-38.4-31.4,32.4-96.2C1567.1,77.5,1541.6,146.7,1541.6,146.7z"/>
</g>
<g>
	<path class="st0" d="M1558.7,31.8c0,0,131.9,61.1,41.7,127.4s-117.9-12.2-105.2-52.5S1558.7,31.8,1558.7,31.8z"/>
	
		<linearGradient id="SVGID_28_" gradientUnits="userSpaceOnUse" x1="329.4912" y1="932.8871" x2="278.6141" y2="903.5132" gradientTransform="matrix(-0.942 -1.6713 1.1702 -0.6596 758.2949 1175.5254)">
		<stop  offset="9.158416e-02" style="stop-color:#FC1F26"/>
		<stop  offset="0.2599" style="stop-color:#FC3B1E"/>
		<stop  offset="0.4851" style="stop-color:#FFA200"/>
		<stop  offset="0.7574" style="stop-color:#FED9DB"/>
	</linearGradient>
	<path class="st34" d="M1630.3,108.4l-152.6-3.8c0,0-38.4-31.4,32.4-96.2C1655.8,39.3,1630.3,108.4,1630.3,108.4z"/>
</g>
<g class="st10">
	<path class="st0" d="M1641.1,44.4c0,0,131.9,61.1,41.7,127.4c-90.3,66.3-117.9-12.2-105.2-52.5S1641.1,44.4,1641.1,44.4z"/>
	
		<linearGradient id="SVGID_29_" gradientUnits="userSpaceOnUse" x1="302.7084" y1="981.6979" x2="251.8313" y2="952.324" gradientTransform="matrix(-0.942 -1.6713 1.1702 -0.6596 758.2949 1175.5254)">
		<stop  offset="9.158416e-02" style="stop-color:#FC1F26"/>
		<stop  offset="0.2599" style="stop-color:#FC3B1E"/>
		<stop  offset="0.4851" style="stop-color:#FFA200"/>
		<stop  offset="0.7574" style="stop-color:#FED9DB"/>
	</linearGradient>
	<path class="st35" d="M1712.6,121l-152.6-3.8c0,0-38.4-31.4,32.4-96.2C1738.1,51.8,1712.6,121,1712.6,121z"/>
</g>
<g class="st4">
	<path class="st0" d="M1751.8,26.8c0,0,131.9,61.1,41.7,127.4c-90.3,66.3-117.9-12.2-105.2-52.5
		C1700.9,61.4,1751.8,26.8,1751.8,26.8z"/>
	
		<linearGradient id="SVGID_30_" gradientUnits="userSpaceOnUse" x1="282.3863" y1="1059.9175" x2="231.5092" y2="1030.5436" gradientTransform="matrix(-0.942 -1.6713 1.1702 -0.6596 758.2949 1175.5254)">
		<stop  offset="9.158416e-02" style="stop-color:#FC1F26"/>
		<stop  offset="0.2599" style="stop-color:#FC3B1E"/>
		<stop  offset="0.4851" style="stop-color:#FFA200"/>
		<stop  offset="0.7574" style="stop-color:#FED9DB"/>
	</linearGradient>
	<path class="st36" d="M1823.3,103.3l-152.6-3.8c0,0-38.4-31.4,32.4-96.2C1848.8,34.2,1823.3,103.3,1823.3,103.3z"/>
</g>
<g class="st4">
	<path class="st0" d="M1175.9,37.5c0,0,134.9,62.5,42.6,130.3s-120.5-12.5-107.5-53.7C1123.9,73,1175.9,37.5,1175.9,37.5z"/>
	
		<linearGradient id="SVGID_31_" gradientUnits="userSpaceOnUse" x1="425.2208" y1="682.4172" x2="373.2094" y2="652.3885" gradientTransform="matrix(-0.942 -1.6713 1.1702 -0.6596 758.2949 1175.5254)">
		<stop  offset="9.158416e-02" style="stop-color:#FC1F26"/>
		<stop  offset="0.2599" style="stop-color:#FC3B1E"/>
		<stop  offset="0.4851" style="stop-color:#FFA200"/>
		<stop  offset="0.7574" style="stop-color:#FED9DB"/>
	</linearGradient>
	<path class="st37" d="M1249,115.8l-156-3.9c0,0-39.3-32.1,33.2-98.4C1275.1,45.1,1249,115.8,1249,115.8z"/>
</g>
<g class="st10">
	<path class="st0" d="M1284.6,24.7c0,0,134.9,62.5,42.6,130.3s-120.5-12.5-107.5-53.7C1232.6,60.1,1284.6,24.7,1284.6,24.7z"/>
	
		<linearGradient id="SVGID_32_" gradientUnits="userSpaceOnUse" x1="403.2523" y1="757.6172" x2="351.2409" y2="727.5884" gradientTransform="matrix(-0.942 -1.6713 1.1702 -0.6596 758.2949 1175.5254)">
		<stop  offset="9.158416e-02" style="stop-color:#FC1F26"/>
		<stop  offset="0.2599" style="stop-color:#FC3B1E"/>
		<stop  offset="0.4851" style="stop-color:#FFA200"/>
		<stop  offset="0.7574" style="stop-color:#FED9DB"/>
	</linearGradient>
	<path class="st38" d="M1357.7,102.9l-156-3.9c0,0-39.3-32.1,33.2-98.4C1383.8,32.3,1357.7,102.9,1357.7,102.9z"/>
</g>
<polygon class="st0" points="978,139.7 1146,81 1467.6,97.1 1682.1,189.2 1140.2,189.2 "/>
<polygon class="st14" points="434.1,153.9 753.3,66.3 1271.7,109.1 1509.7,164.7 1446.9,181.7 345.6,180.7 "/>
<polygon class="st0" points="383.3,138.8 551.3,80.1 872.9,96.2 1087.4,188.3 545.5,188.3 "/>
<polygon class="st14" points="668.1,153.9 849.5,66.3 1144.2,109.1 1279.5,164.7 1243.8,181.7 617.8,180.7 "/>
<polygon class="st0" points="-89,127.3 79,68.6 400.6,84.7 615.1,176.8 73.2,176.8 "/>
<polygon class="st14" points="195.8,145.1 377.2,57.4 671.9,100.3 807.2,155.9 771.5,172.9 145.4,171.8 "/>
<g class="st2">
	<path class="st0" d="M342.4,80.6c0,0,131.9,61.1,41.7,127.4s-117.9-12.2-105.2-52.5C291.5,115.2,342.4,80.6,342.4,80.6z"/>
	<path class="st0" d="M413.9,157.1l-152.6-3.8c0,0-38.4-31.4,32.4-96.2C439.4,88,413.9,157.1,413.9,157.1z"/>
</g>
<g class="st2">
	<path class="st0" d="M573.5,70.3c0,0,131.9,61.1,41.7,127.4S497.3,185.5,510,145.2S573.5,70.3,573.5,70.3z"/>
	<path class="st0" d="M645,146.8L492.5,143c0,0-38.4-31.4,32.4-96.2C670.5,77.7,645,146.8,645,146.8z"/>
</g>
<polygon class="st14" points="230.9,126.5 495,75.8 664.5,86.7 718.9,132.8 212.2,155.2 223.4,128.6 "/>
<polygon class="st0" points="322.3,124.4 509.4,89.5 575.9,107 574.3,132.8 360.5,131.1 "/>
<g class="st2">
	<path class="st0" d="M31.7,70.3c0,0,131.9,61.1,41.7,127.4s-117.9-12.2-105.2-52.5S31.7,70.3,31.7,70.3z"/>
	<path class="st0" d="M103.2,146.8L-49.3,143c0,0-38.4-31.4,32.4-96.2C128.7,77.7,103.2,146.8,103.2,146.8z"/>
</g>
<g class="st2">
	<path class="st0" d="M1409.3,71.2c0,0,131.9,61.1,41.7,127.4c-90.3,66.3-117.9-12.2-105.2-52.5
		C1358.4,105.9,1409.3,71.2,1409.3,71.2z"/>
	<path class="st0" d="M1480.8,147.8l-152.6-3.8c0,0-38.4-31.4,32.4-96.2C1506.3,78.6,1480.8,147.8,1480.8,147.8z"/>
</g>
<g class="st2">
	<path class="st0" d="M1237,92.8c0,0,131.9,61.1,41.7,127.4c-90.3,66.3-117.9-12.2-105.2-52.5S1237,92.8,1237,92.8z"/>
	<path class="st0" d="M1308.5,169.4l-152.6-3.8c0,0-38.4-31.4,32.4-96.2C1334,100.3,1308.5,169.4,1308.5,169.4z"/>
</g>
<polygon class="st0" points="1255.7,134.5 1423.7,75.9 1745.3,91.9 1959.8,184.1 1417.9,184.1 "/>
<g class="st2">
	<path class="st0" d="M1618.8,77.3c0,0,131.9,61.1,41.7,127.4s-117.9-12.2-105.2-52.5S1618.8,77.3,1618.8,77.3z"/>
	<path class="st0" d="M1690.4,153.9l-152.6-3.8c0,0-38.4-31.4,32.4-96.2C1715.9,84.8,1690.4,153.9,1690.4,153.9z"/>
</g>
</svg>
