<?xml version="1.0" encoding="utf-8"?>
<!-- Generator: Adobe Illustrator 22.0.0, SVG Export Plug-In . SVG Version: 6.00 Build 0)  -->
<svg version="1.1" id="_x35_66af192-e4de-4226-9be2-537ffa7cb0ca"
	 xmlns="http://www.w3.org/2000/svg" xmlns:xlink="http://www.w3.org/1999/xlink" x="0px" y="0px" viewBox="0 0 960 123"
	 style="enable-background:new 0 0 960 123;" xml:space="preserve">
<style type="text/css">
	.st0{fill:#FFDDDE;}
	.st1{opacity:0.68;fill:url(#SVGID_1_);}
	.st2{opacity:0.25;}
	.st3{fill:url(#SVGID_2_);}
	.st4{opacity:0.68;}
	.st5{fill:url(#SVGID_3_);}
	.st6{fill:url(#SVGID_4_);}
	.st7{fill:url(#SVGID_5_);}
	.st8{fill:url(#SVGID_6_);}
	.st9{fill:url(#SVGID_7_);}
	.st10{opacity:0.35;}
	.st11{fill:url(#SVGID_8_);}
	.st12{fill:url(#SVGID_9_);}
	.st13{fill:url(#SVGID_10_);}
	.st14{opacity:0.25;fill:#FFDDDE;}
	.st15{fill:url(#SVGID_11_);}
	.st16{opacity:0.54;}
	.st17{fill:url(#SVGID_12_);}
	.st18{fill:url(#SVGID_13_);}
	.st19{fill:url(#SVGID_14_);}
	.st20{opacity:0.46;}
	.st21{fill:url(#SVGID_15_);}
	.st22{fill:url(#SVGID_16_);}
	.st23{fill:url(#SVGID_17_);}
	.st24{fill:url(#SVGID_18_);}
	.st25{fill:url(#SVGID_19_);}
	.st26{fill:url(#SVGID_20_);}
	.st27{fill:url(#SVGID_21_);}
	.st28{fill:url(#SVGID_22_);}
	.st29{fill:url(#SVGID_23_);}
	.st30{fill:url(#SVGID_24_);}
	.st31{fill:url(#SVGID_25_);}
	.st32{fill:url(#SVGID_26_);}
</style>
<title>m</title>
<path class="st0" d="M25,76.2c0,0-35.3,44.5-33.3,70.1c-19.2-3.5,10.9,41.5,24.4,42.3c13.5,0.9-10.3-42.8,16-42.8s44.9-19,31.4-38.4
	S25,76.2,25,76.2z"/>
<linearGradient id="SVGID_1_" gradientUnits="userSpaceOnUse" x1="397.1769" y1="175.7351" x2="365.1848" y2="157.2644" gradientTransform="matrix(-0.942 -1.6713 1.1702 -0.6596 193.2278 850.8052)">
	<stop  offset="9.158416e-02" style="stop-color:#FC1F26"/>
	<stop  offset="0.2599" style="stop-color:#FC3B1E"/>
	<stop  offset="0.4851" style="stop-color:#FFA200"/>
	<stop  offset="0.7574" style="stop-color:#FED9DB"/>
</linearGradient>
<path class="st1" d="M68,135.6l-69.4-2.4c0,0-17.5-20.1,14.7-61.5C79.6,91.4,68,135.6,68,135.6z"/>
<g class="st2">
	<path class="st0" d="M74.8,95.3c0,0,55,37.3,17.4,77.7s-49.1-7.4-43.9-32S74.8,95.3,74.8,95.3z"/>
	<path class="st0" d="M104.6,142L41,139.6c0,0-16-19.2,13.5-58.7C115.3,99.8,104.6,142,104.6,142z"/>
</g>
<g>
	<path class="st0" d="M111.8,71.9c0,0,55,37.3,17.4,77.7s-49.1-7.4-43.9-32S111.8,71.9,111.8,71.9z"/>
	
		<linearGradient id="SVGID_2_" gradientUnits="userSpaceOnUse" x1="383.8951" y1="230.7864" x2="353.4186" y2="213.1908" gradientTransform="matrix(-0.942 -1.6713 1.1702 -0.6596 193.2278 850.8052)">
		<stop  offset="9.158416e-02" style="stop-color:#FC1F26"/>
		<stop  offset="0.2599" style="stop-color:#FC3B1E"/>
		<stop  offset="0.4851" style="stop-color:#FFA200"/>
		<stop  offset="0.7574" style="stop-color:#FED9DB"/>
	</linearGradient>
	<path class="st3" d="M141.6,118.6L78,116.3c0,0-16-19.2,13.5-58.7C152.2,76.5,141.6,118.6,141.6,118.6z"/>
</g>
<g class="st4">
	<path class="st0" d="M146.1,79.6c0,0,55,37.3,17.4,77.7s-49.1-7.4-43.9-32S146.1,79.6,146.1,79.6z"/>
	
		<linearGradient id="SVGID_3_" gradientUnits="userSpaceOnUse" x1="371.6255" y1="250.2543" x2="341.1489" y2="232.6587" gradientTransform="matrix(-0.942 -1.6713 1.1702 -0.6596 193.2278 850.8052)">
		<stop  offset="9.158416e-02" style="stop-color:#FC1F26"/>
		<stop  offset="0.2599" style="stop-color:#FC3B1E"/>
		<stop  offset="0.4851" style="stop-color:#FFA200"/>
		<stop  offset="0.7574" style="stop-color:#FED9DB"/>
	</linearGradient>
	<path class="st5" d="M175.9,126.3l-63.6-2.3c0,0-16-19.2,13.5-58.7C186.6,84.1,175.9,126.3,175.9,126.3z"/>
</g>
<g class="st2">
	<path class="st0" d="M192.3,68.8c0,0,55,37.3,17.4,77.7s-49.1-7.4-43.9-32C171,90,192.3,68.8,192.3,68.8z"/>
	<path class="st0" d="M222.1,115.5l-63.6-2.3c0,0-16-19.2,13.5-58.7C232.7,73.4,222.1,115.5,222.1,115.5z"/>
</g>
<g>
	<path class="st0" d="M242.9,100.4c0,0,55,37.3,17.4,77.7s-49.1-7.4-43.9-32C221.7,121.5,242.9,100.4,242.9,100.4z"/>
	
		<linearGradient id="SVGID_4_" gradientUnits="userSpaceOnUse" x1="337.4166" y1="305.4299" x2="306.94" y2="287.8343" gradientTransform="matrix(-0.942 -1.6713 1.1702 -0.6596 193.2278 850.8052)">
		<stop  offset="9.158416e-02" style="stop-color:#FC1F26"/>
		<stop  offset="0.2599" style="stop-color:#FC3B1E"/>
		<stop  offset="0.4851" style="stop-color:#FFA200"/>
		<stop  offset="0.7574" style="stop-color:#FED9DB"/>
	</linearGradient>
	<path class="st6" d="M272.7,147.1l-63.6-2.3c0,0-16-19.2,13.5-58.7C283.4,104.9,272.7,147.1,272.7,147.1z"/>
</g>
<path class="st0" d="M270.5,71.8c0,0-35.3,44.5-33.3,70.1c-19.2-3.5,10.9,41.5,24.4,42.3c13.5,0.9-10.3-42.8,16-42.8
	s44.9-19,31.4-38.4S270.5,71.8,270.5,71.8z"/>
<linearGradient id="SVGID_5_" gradientUnits="userSpaceOnUse" x1="337.3213" y1="356.6515" x2="305.3292" y2="338.1808" gradientTransform="matrix(-0.942 -1.6713 1.1702 -0.6596 193.2278 850.8052)">
	<stop  offset="9.158416e-02" style="stop-color:#FC1F26"/>
	<stop  offset="0.2599" style="stop-color:#FC3B1E"/>
	<stop  offset="0.4851" style="stop-color:#FFA200"/>
	<stop  offset="0.7574" style="stop-color:#FED9DB"/>
</linearGradient>
<path class="st7" d="M336.1,116.3l-69.4-2.4c0,0-17.5-20.1,14.7-61.5C347.6,72.1,336.1,116.3,336.1,116.3z"/>
<g>
	<path class="st0" d="M320.3,90.9c0,0,55,37.3,17.4,77.7s-49.1-7.4-43.9-32S320.3,90.9,320.3,90.9z"/>
	
		<linearGradient id="SVGID_6_" gradientUnits="userSpaceOnUse" x1="321.8922" y1="359.1139" x2="291.4156" y2="341.5182" gradientTransform="matrix(-0.942 -1.6713 1.1702 -0.6596 193.2278 850.8052)">
		<stop  offset="9.158416e-02" style="stop-color:#FC1F26"/>
		<stop  offset="0.2599" style="stop-color:#FC3B1E"/>
		<stop  offset="0.4851" style="stop-color:#FFA200"/>
		<stop  offset="0.7574" style="stop-color:#FED9DB"/>
	</linearGradient>
	<path class="st8" d="M350.2,137.6l-63.6-2.3c0,0-16-19.2,13.5-58.7C360.8,95.4,350.2,137.6,350.2,137.6z"/>
</g>
<g>
	<path class="st0" d="M357.3,67.6c0,0,55,37.3,17.4,77.7s-49.1-7.4-43.9-32C336.1,88.7,357.3,67.6,357.3,67.6z"/>
	
		<linearGradient id="SVGID_7_" gradientUnits="userSpaceOnUse" x1="323.0326" y1="391.6207" x2="292.5561" y2="374.0251" gradientTransform="matrix(-0.942 -1.6713 1.1702 -0.6596 193.2278 850.8052)">
		<stop  offset="9.158416e-02" style="stop-color:#FC1F26"/>
		<stop  offset="0.2599" style="stop-color:#FC3B1E"/>
		<stop  offset="0.4851" style="stop-color:#FFA200"/>
		<stop  offset="0.7574" style="stop-color:#FED9DB"/>
	</linearGradient>
	<path class="st9" d="M387.1,114.3l-63.6-2.3c0,0-16-19.2,13.5-58.7C397.8,72.1,387.1,114.3,387.1,114.3z"/>
</g>
<g class="st10">
	<path class="st0" d="M391.6,75.2c0,0,55,37.3,17.4,77.7s-49.1-7.4-43.9-32C370.4,96.4,391.6,75.2,391.6,75.2z"/>
	
		<linearGradient id="SVGID_8_" gradientUnits="userSpaceOnUse" x1="310.763" y1="411.0887" x2="280.2864" y2="393.493" gradientTransform="matrix(-0.942 -1.6713 1.1702 -0.6596 193.2278 850.8052)">
		<stop  offset="9.158416e-02" style="stop-color:#FC1F26"/>
		<stop  offset="0.2599" style="stop-color:#FC3B1E"/>
		<stop  offset="0.4851" style="stop-color:#FFA200"/>
		<stop  offset="0.7574" style="stop-color:#FED9DB"/>
	</linearGradient>
	<path class="st11" d="M421.5,121.9l-63.6-2.3c0,0-16-19.2,13.5-58.7C432.1,79.8,421.5,121.9,421.5,121.9z"/>
</g>
<g class="st4">
	<path class="st0" d="M437.8,64.5c0,0,55,37.3,17.4,77.7s-49.1-7.4-43.9-32S437.8,64.5,437.8,64.5z"/>
	
		<linearGradient id="SVGID_9_" gradientUnits="userSpaceOnUse" x1="303.833" y1="444.95" x2="273.3564" y2="427.3544" gradientTransform="matrix(-0.942 -1.6713 1.1702 -0.6596 193.2278 850.8052)">
		<stop  offset="9.158416e-02" style="stop-color:#FC1F26"/>
		<stop  offset="0.2599" style="stop-color:#FC3B1E"/>
		<stop  offset="0.4851" style="stop-color:#FFA200"/>
		<stop  offset="0.7574" style="stop-color:#FED9DB"/>
	</linearGradient>
	<path class="st12" d="M467.6,111.2l-63.6-2.3c0,0-16-19.2,13.5-58.7C478.2,69,467.6,111.2,467.6,111.2z"/>
</g>
<g>
	<path class="st0" d="M488.4,82.4c0,0,55,37.3,17.4,77.7s-49.1-7.4-43.9-32C467.2,103.5,488.4,82.4,488.4,82.4z"/>
	
		<linearGradient id="SVGID_10_" gradientUnits="userSpaceOnUse" x1="282.7408" y1="471.2448" x2="252.2643" y2="453.6492" gradientTransform="matrix(-0.942 -1.6713 1.1702 -0.6596 193.2278 850.8052)">
		<stop  offset="9.158416e-02" style="stop-color:#FC1F26"/>
		<stop  offset="0.2599" style="stop-color:#FC3B1E"/>
		<stop  offset="0.4851" style="stop-color:#FFA200"/>
		<stop  offset="0.7574" style="stop-color:#FED9DB"/>
	</linearGradient>
	<path class="st13" d="M518.3,129.1l-63.6-2.3c0,0-16-19.2,13.5-58.7C528.9,86.9,518.3,129.1,518.3,129.1z"/>
</g>
<path class="st14" d="M461.8,57.6c0,0-35.3,44.5-33.3,70.1c-19.2-3.5,10.9,41.5,24.4,42.3c13.5,0.9-10.3-42.8,16-42.8
	s44.9-19,31.4-38.4S461.8,57.6,461.8,57.6z"/>
<g>
	<path class="st0" d="M507.2,76.1c0,0,56.2,38.1,17.8,79.5s-50.2-7.6-44.8-32.7C485.5,97.7,507.2,76.1,507.2,76.1z"/>
	
		<linearGradient id="SVGID_11_" gradientUnits="userSpaceOnUse" x1="281.0243" y1="485.6843" x2="249.8683" y2="467.6964" gradientTransform="matrix(-0.942 -1.6713 1.1702 -0.6596 193.2278 850.8052)">
		<stop  offset="9.158416e-02" style="stop-color:#FC1F26"/>
		<stop  offset="0.2599" style="stop-color:#FC3B1E"/>
		<stop  offset="0.4851" style="stop-color:#FFA200"/>
		<stop  offset="0.7574" style="stop-color:#FED9DB"/>
	</linearGradient>
	<path class="st15" d="M537.7,123.8l-65-2.4c0,0-16.4-19.6,13.8-60C548.5,80.7,537.7,123.8,537.7,123.8z"/>
</g>
<g class="st16">
	<path class="st0" d="M545,52.2c0,0,56.2,38.1,17.8,79.5s-50.2-7.6-44.8-32.7C523.3,73.8,545,52.2,545,52.2z"/>
	
		<linearGradient id="SVGID_12_" gradientUnits="userSpaceOnUse" x1="282.1902" y1="518.9158" x2="251.0342" y2="500.9279" gradientTransform="matrix(-0.942 -1.6713 1.1702 -0.6596 193.2278 850.8052)">
		<stop  offset="9.158416e-02" style="stop-color:#FC1F26"/>
		<stop  offset="0.2599" style="stop-color:#FC3B1E"/>
		<stop  offset="0.4851" style="stop-color:#FFA200"/>
		<stop  offset="0.7574" style="stop-color:#FED9DB"/>
	</linearGradient>
	<path class="st17" d="M575.4,99.9l-65-2.4c0,0-16.4-19.6,13.8-60C586.3,56.8,575.4,99.9,575.4,99.9z"/>
</g>
<g>
	<path class="st0" d="M580.1,60c0,0,56.2,38.1,17.8,79.5s-50.2-7.6-44.8-32.7S580.1,60,580.1,60z"/>
	
		<linearGradient id="SVGID_13_" gradientUnits="userSpaceOnUse" x1="269.647" y1="538.8177" x2="238.491" y2="520.8298" gradientTransform="matrix(-0.942 -1.6713 1.1702 -0.6596 193.2278 850.8052)">
		<stop  offset="9.158416e-02" style="stop-color:#FC1F26"/>
		<stop  offset="0.2599" style="stop-color:#FC3B1E"/>
		<stop  offset="0.4851" style="stop-color:#FFA200"/>
		<stop  offset="0.7574" style="stop-color:#FED9DB"/>
	</linearGradient>
	<path class="st18" d="M610.6,107.8l-65-2.4c0,0-16.4-19.6,13.8-60C621.4,64.7,610.6,107.8,610.6,107.8z"/>
</g>
<g>
	<path class="st0" d="M627.2,49c0,0,56.2,38.1,17.8,79.5s-50.2-7.6-44.8-32.7C605.6,70.6,627.2,49,627.2,49z"/>
	
		<linearGradient id="SVGID_14_" gradientUnits="userSpaceOnUse" x1="262.5625" y1="573.4341" x2="231.4065" y2="555.4461" gradientTransform="matrix(-0.942 -1.6713 1.1702 -0.6596 193.2278 850.8052)">
		<stop  offset="9.158416e-02" style="stop-color:#FC1F26"/>
		<stop  offset="0.2599" style="stop-color:#FC3B1E"/>
		<stop  offset="0.4851" style="stop-color:#FFA200"/>
		<stop  offset="0.7574" style="stop-color:#FED9DB"/>
	</linearGradient>
	<path class="st19" d="M657.7,96.8l-65-2.4c0,0-16.4-19.6,13.8-60C668.6,53.7,657.7,96.8,657.7,96.8z"/>
</g>
<g class="st20">
	<path class="st0" d="M679,67.3c0,0,56.2,38.1,17.8,79.5s-50.2-7.6-44.8-32.7S679,67.3,679,67.3z"/>
	
		<linearGradient id="SVGID_15_" gradientUnits="userSpaceOnUse" x1="241.0001" y1="600.3151" x2="209.8441" y2="582.3271" gradientTransform="matrix(-0.942 -1.6713 1.1702 -0.6596 193.2278 850.8052)">
		<stop  offset="9.158416e-02" style="stop-color:#FC1F26"/>
		<stop  offset="0.2599" style="stop-color:#FC3B1E"/>
		<stop  offset="0.4851" style="stop-color:#FFA200"/>
		<stop  offset="0.7574" style="stop-color:#FED9DB"/>
	</linearGradient>
	<path class="st21" d="M709.5,115.1l-65-2.4c0,0-16.4-19.6,13.8-60C720.4,72,709.5,115.1,709.5,115.1z"/>
</g>
<g class="st4">
	<path class="st0" d="M197.7,71c0,0,56.2,38.1,17.8,79.5s-50.2-7.6-44.8-32.7C176,92.7,197.7,71,197.7,71z"/>
	
		<linearGradient id="SVGID_16_" gradientUnits="userSpaceOnUse" x1="362.5213" y1="286.786" x2="331.3653" y2="268.7981" gradientTransform="matrix(-0.942 -1.6713 1.1702 -0.6596 193.2278 850.8052)">
		<stop  offset="9.158416e-02" style="stop-color:#FC1F26"/>
		<stop  offset="0.2599" style="stop-color:#FC3B1E"/>
		<stop  offset="0.4851" style="stop-color:#FFA200"/>
		<stop  offset="0.7574" style="stop-color:#FED9DB"/>
	</linearGradient>
	<path class="st22" d="M228.1,118.8l-65-2.4c0,0-16.4-19.6,13.8-60C239,75.7,228.1,118.8,228.1,118.8z"/>
</g>
<g class="st10">
	<path class="st0" d="M243,63.2c0,0,56.2,38.1,17.8,79.5s-50.2-7.6-44.8-32.7C221.3,84.8,243,63.2,243,63.2z"/>
	
		<linearGradient id="SVGID_17_" gradientUnits="userSpaceOnUse" x1="354.4892" y1="319.0536" x2="323.3332" y2="301.0657" gradientTransform="matrix(-0.942 -1.6713 1.1702 -0.6596 193.2278 850.8052)">
		<stop  offset="9.158416e-02" style="stop-color:#FC1F26"/>
		<stop  offset="0.2599" style="stop-color:#FC3B1E"/>
		<stop  offset="0.4851" style="stop-color:#FFA200"/>
		<stop  offset="0.7574" style="stop-color:#FED9DB"/>
	</linearGradient>
	<path class="st23" d="M273.5,110.9l-65-2.4c0,0-16.4-19.6,13.8-60C284.3,67.8,273.5,110.9,273.5,110.9z"/>
</g>
<g>
	<path class="st0" d="M709.2,116.8c0,0,55,37.3,17.4,77.7s-49.1-7.4-43.9-32C688,138,709.2,116.8,709.2,116.8z"/>
	
		<linearGradient id="SVGID_18_" gradientUnits="userSpaceOnUse" x1="210.5884" y1="601.8638" x2="180.1118" y2="584.2681" gradientTransform="matrix(-0.942 -1.6713 1.1702 -0.6596 193.2278 850.8052)">
		<stop  offset="9.158416e-02" style="stop-color:#FC1F26"/>
		<stop  offset="0.2599" style="stop-color:#FC3B1E"/>
		<stop  offset="0.4851" style="stop-color:#FFA200"/>
		<stop  offset="0.7574" style="stop-color:#FED9DB"/>
	</linearGradient>
	<path class="st24" d="M739.1,163.5l-63.6-2.3c0,0-16-19.2,13.5-58.7C749.7,121.3,739.1,163.5,739.1,163.5z"/>
</g>
<path class="st0" d="M736.8,88.3c0,0-35.3,44.5-33.3,70.1c-19.2-3.5,10.9,41.5,24.4,42.3c13.5,0.9-10.3-42.8,16-42.8
	s44.9-19,31.4-38.4C761.8,100.2,736.8,88.3,736.8,88.3z"/>
<linearGradient id="SVGID_19_" gradientUnits="userSpaceOnUse" x1="210.4931" y1="653.0853" x2="178.501" y2="634.6147" gradientTransform="matrix(-0.942 -1.6713 1.1702 -0.6596 193.2278 850.8052)">
	<stop  offset="9.158416e-02" style="stop-color:#FC1F26"/>
	<stop  offset="0.2599" style="stop-color:#FC3B1E"/>
	<stop  offset="0.4851" style="stop-color:#FFA200"/>
	<stop  offset="0.7574" style="stop-color:#FED9DB"/>
</linearGradient>
<path class="st25" d="M802.4,132.7l-69.4-2.4c0,0-17.5-20.1,14.7-61.5C814,88.5,802.4,132.7,802.4,132.7z"/>
<g>
	<path class="st0" d="M786.7,107.4c0,0,55,37.3,17.4,77.7c-37.6,40.5-49.1-7.4-43.9-32C765.5,128.5,786.7,107.4,786.7,107.4z"/>
	
		<linearGradient id="SVGID_20_" gradientUnits="userSpaceOnUse" x1="195.064" y1="655.5477" x2="164.5874" y2="637.952" gradientTransform="matrix(-0.942 -1.6713 1.1702 -0.6596 193.2278 850.8052)">
		<stop  offset="9.158416e-02" style="stop-color:#FC1F26"/>
		<stop  offset="0.2599" style="stop-color:#FC3B1E"/>
		<stop  offset="0.4851" style="stop-color:#FFA200"/>
		<stop  offset="0.7574" style="stop-color:#FED9DB"/>
	</linearGradient>
	<path class="st26" d="M816.5,154.1l-63.6-2.3c0,0-16-19.2,13.5-58.7C827.1,111.9,816.5,154.1,816.5,154.1z"/>
</g>
<g class="st20">
	<path class="st0" d="M823.7,84c0,0,55,37.3,17.4,77.7s-49.1-7.4-43.9-32C802.4,105.1,823.7,84,823.7,84z"/>
	
		<linearGradient id="SVGID_21_" gradientUnits="userSpaceOnUse" x1="196.2045" y1="688.0545" x2="165.7279" y2="670.4589" gradientTransform="matrix(-0.942 -1.6713 1.1702 -0.6596 193.2278 850.8052)">
		<stop  offset="9.158416e-02" style="stop-color:#FC1F26"/>
		<stop  offset="0.2599" style="stop-color:#FC3B1E"/>
		<stop  offset="0.4851" style="stop-color:#FFA200"/>
		<stop  offset="0.7574" style="stop-color:#FED9DB"/>
	</linearGradient>
	<path class="st27" d="M853.5,130.7l-63.6-2.3c0,0-16-19.2,13.5-58.7C864.1,88.5,853.5,130.7,853.5,130.7z"/>
</g>
<g>
	<path class="st0" d="M858,91.7c0,0,55,37.3,17.4,77.7c-37.6,40.5-49.1-7.4-43.9-32C836.8,112.8,858,91.7,858,91.7z"/>
	
		<linearGradient id="SVGID_22_" gradientUnits="userSpaceOnUse" x1="183.9348" y1="707.5225" x2="153.4582" y2="689.9268" gradientTransform="matrix(-0.942 -1.6713 1.1702 -0.6596 193.2278 850.8052)">
		<stop  offset="9.158416e-02" style="stop-color:#FC1F26"/>
		<stop  offset="0.2599" style="stop-color:#FC3B1E"/>
		<stop  offset="0.4851" style="stop-color:#FFA200"/>
		<stop  offset="0.7574" style="stop-color:#FED9DB"/>
	</linearGradient>
	<path class="st28" d="M887.8,138.4l-63.6-2.3c0,0-16-19.2,13.5-58.7C898.4,96.2,887.8,138.4,887.8,138.4z"/>
</g>
<g class="st20">
	<path class="st0" d="M904.1,80.9c0,0,55,37.3,17.4,77.7c-37.6,40.5-49.1-7.4-43.9-32C882.9,102.1,904.1,80.9,904.1,80.9z"/>
	
		<linearGradient id="SVGID_23_" gradientUnits="userSpaceOnUse" x1="177.0048" y1="741.3839" x2="146.5282" y2="723.7882" gradientTransform="matrix(-0.942 -1.6713 1.1702 -0.6596 193.2278 850.8052)">
		<stop  offset="9.158416e-02" style="stop-color:#FC1F26"/>
		<stop  offset="0.2599" style="stop-color:#FC3B1E"/>
		<stop  offset="0.4851" style="stop-color:#FFA200"/>
		<stop  offset="0.7574" style="stop-color:#FED9DB"/>
	</linearGradient>
	<path class="st29" d="M934,127.6l-63.6-2.3c0,0-16-19.2,13.5-58.7C944.6,85.5,934,127.6,934,127.6z"/>
</g>
<g>
	<path class="st0" d="M954.8,98.8c0,0,55,37.3,17.4,77.7c-37.6,40.5-49.1-7.4-43.9-32C933.6,120,954.8,98.8,954.8,98.8z"/>
	
		<linearGradient id="SVGID_24_" gradientUnits="userSpaceOnUse" x1="155.9126" y1="767.6786" x2="125.4361" y2="750.083" gradientTransform="matrix(-0.942 -1.6713 1.1702 -0.6596 193.2278 850.8052)">
		<stop  offset="9.158416e-02" style="stop-color:#FC1F26"/>
		<stop  offset="0.2599" style="stop-color:#FC3B1E"/>
		<stop  offset="0.4851" style="stop-color:#FFA200"/>
		<stop  offset="0.7574" style="stop-color:#FED9DB"/>
	</linearGradient>
	<path class="st30" d="M984.6,145.5l-63.6-2.3c0,0-16-19.2,13.5-58.7C995.2,103.4,984.6,145.5,984.6,145.5z"/>
</g>
<path class="st14" d="M928.1,57.6c0,0-35.3,44.5-33.3,70.1c-19.2-3.5,10.9,41.5,24.4,42.3c13.5,0.9-10.3-42.8,16-42.8
	s44.9-19,31.4-38.4S928.1,57.6,928.1,57.6z"/>
<g>
	<path class="st0" d="M973.5,92.5c0,0,56.2,38.1,17.8,79.5c-38.5,41.4-50.2-7.6-44.8-32.7C951.8,114.1,973.5,92.5,973.5,92.5z"/>
	
		<linearGradient id="SVGID_25_" gradientUnits="userSpaceOnUse" x1="154.1962" y1="782.1181" x2="123.0402" y2="764.1302" gradientTransform="matrix(-0.942 -1.6713 1.1702 -0.6596 193.2278 850.8052)">
		<stop  offset="9.158416e-02" style="stop-color:#FC1F26"/>
		<stop  offset="0.2599" style="stop-color:#FC3B1E"/>
		<stop  offset="0.4851" style="stop-color:#FFA200"/>
		<stop  offset="0.7574" style="stop-color:#FED9DB"/>
	</linearGradient>
	<path class="st31" d="M1004,140.2l-65-2.4c0,0-16.4-19.6,13.8-60C1014.9,97.1,1004,140.2,1004,140.2z"/>
</g>
<g>
	<path class="st0" d="M709.3,79.6c0,0,56.2,38.1,17.8,79.5s-50.2-7.6-44.8-32.7S709.3,79.6,709.3,79.6z"/>
	
		<linearGradient id="SVGID_26_" gradientUnits="userSpaceOnUse" x1="227.661" y1="615.4874" x2="196.505" y2="597.4995" gradientTransform="matrix(-0.942 -1.6713 1.1702 -0.6596 193.2278 850.8052)">
		<stop  offset="9.158416e-02" style="stop-color:#FC1F26"/>
		<stop  offset="0.2599" style="stop-color:#FC3B1E"/>
		<stop  offset="0.4851" style="stop-color:#FFA200"/>
		<stop  offset="0.7574" style="stop-color:#FED9DB"/>
	</linearGradient>
	<path class="st32" d="M739.8,127.4l-65-2.4c0,0-16.4-19.6,13.8-60C750.7,84.3,739.8,127.4,739.8,127.4z"/>
</g>
<polygon class="st0" points="115.1,151.2 185.2,106.2 319.3,118.5 408.8,189.2 182.8,189.2 "/>
<polygon class="st14" points="318,175 600,95.9 781,112.9 839,184.9 298,219.9 310,178.2 "/>
<polygon class="st0" points="-104.2,176.5 739.5,122.1 1040.5,147.5 1034.3,186 68.3,186 "/>
<polygon class="st14" points="-111.7,173.7 21.4,120.3 237.6,146.4 336.8,180.4 310.7,190.7 -148.6,190.1 "/>
<polygon class="st0" points="-92.5,155.4 97.9,101.1 165.9,126.5 164.5,164.9 -53.6,164.9 "/>
<polygon class="st14" points="125.3,191.4 407.3,112.3 588.3,129.3 646.3,201.3 105.3,236.3 117.3,194.7 "/>
</svg>
