<?xml version="1.0" encoding="utf-8"?>
<!-- Generator: Adobe Illustrator 22.0.0, SVG Export Plug-In . SVG Version: 6.00 Build 0)  -->
<svg version="1.1" id="_x35_66af192-e4de-4226-9be2-537ffa7cb0ca"
	 xmlns="http://www.w3.org/2000/svg" xmlns:xlink="http://www.w3.org/1999/xlink" x="0px" y="0px" viewBox="0 0 960 123"
	 style="enable-background:new 0 0 960 123;" xml:space="preserve">
<style type="text/css">
	.st0{fill:#FFDDDE;}
	.st1{opacity:0.68;fill:url(#SVGID_1_);}
	.st2{opacity:0.25;}
	.st3{fill:url(#SVGID_2_);}
	.st4{opacity:0.68;}
	.st5{fill:url(#SVGID_3_);}
	.st6{fill:url(#SVGID_4_);}
	.st7{fill:url(#SVGID_5_);}
	.st8{fill:url(#SVGID_6_);}
	.st9{fill:url(#SVGID_7_);}
	.st10{opacity:0.35;}
	.st11{fill:url(#SVGID_8_);}
	.st12{fill:url(#SVGID_9_);}
	.st13{fill:url(#SVGID_10_);}
	.st14{opacity:0.25;fill:#FFDDDE;}
	.st15{fill:url(#SVGID_11_);}
	.st16{opacity:0.54;}
	.st17{fill:url(#SVGID_12_);}
	.st18{fill:url(#SVGID_13_);}
	.st19{fill:url(#SVGID_14_);}
	.st20{opacity:0.46;}
	.st21{fill:url(#SVGID_15_);}
	.st22{fill:url(#SVGID_16_);}
	.st23{fill:url(#SVGID_17_);}
	.st24{fill:url(#SVGID_18_);}
	.st25{fill:url(#SVGID_19_);}
	.st26{fill:url(#SVGID_20_);}
	.st27{fill:url(#SVGID_21_);}
	.st28{fill:url(#SVGID_22_);}
	.st29{fill:url(#SVGID_23_);}
	.st30{fill:url(#SVGID_24_);}
	.st31{fill:url(#SVGID_25_);}
	.st32{fill:url(#SVGID_26_);}
	.st33{fill:url(#SVGID_27_);}
	.st34{fill:url(#SVGID_28_);}
	.st35{fill:url(#SVGID_29_);}
	.st36{fill:url(#SVGID_30_);}
	.st37{fill:url(#SVGID_31_);}
	.st38{fill:url(#SVGID_32_);}
	.st39{fill:url(#SVGID_33_);}
	.st40{fill:url(#SVGID_34_);}
	.st41{fill:url(#SVGID_35_);}
	.st42{fill:url(#SVGID_36_);}
	.st43{fill:url(#SVGID_37_);}
	.st44{fill:url(#SVGID_38_);}
	.st45{fill:url(#SVGID_39_);}
	.st46{fill:url(#SVGID_40_);}
	.st47{fill:url(#SVGID_41_);}
	.st48{fill:url(#SVGID_42_);}
	.st49{fill:url(#SVGID_43_);}
	.st50{fill:url(#SVGID_44_);}
	.st51{fill:url(#SVGID_45_);}
	.st52{fill:url(#SVGID_46_);}
	.st53{fill:url(#SVGID_47_);}
	.st54{fill:url(#SVGID_48_);}
	.st55{fill:url(#SVGID_49_);}
	.st56{fill:url(#SVGID_50_);}
	.st57{fill:url(#SVGID_51_);}
</style>
<title>m</title>
<path class="st0" d="M-80.9,88.8c0,0-35.3,18.1-33.3,28.6c-19.2-1.4,10.9,16.9,24.4,17.2c13.5,0.4-10.3-17.4,16-17.4
	s44.9-7.7,31.4-15.6S-80.9,88.8-80.9,88.8z"/>
<linearGradient id="SVGID_1_" gradientUnits="userSpaceOnUse" x1="415.5016" y1="103.5122" x2="401.4578" y2="95.404" gradientTransform="matrix(-0.942 -1.6713 1.1702 -0.6596 193.2278 850.8052)">
	<stop  offset="9.158416e-02" style="stop-color:#FC1F26"/>
	<stop  offset="0.2599" style="stop-color:#FC3B1E"/>
	<stop  offset="0.4851" style="stop-color:#FFA200"/>
	<stop  offset="0.7574" style="stop-color:#FED9DB"/>
</linearGradient>
<path class="st1" d="M-37.9,113l-69.4-1c0,0-17.5-8.2,14.7-25.1C-26.3,95-37.9,113-37.9,113z"/>
<g class="st2">
	<path class="st0" d="M-31.1,96.6c0,0,55,15.2,17.4,31.7s-49.1-3-43.9-13S-31.1,96.6-31.1,96.6z"/>
	<path class="st0" d="M-1.2,115.6l-63.6-0.9c0,0-16-7.8,13.5-23.9C9.4,98.4-1.2,115.6-1.2,115.6z"/>
</g>
<g>
	<path class="st0" d="M5.9,87.1c0,0,55,15.2,17.4,31.7s-49.1-3-43.9-13S5.9,87.1,5.9,87.1z"/>
	
		<linearGradient id="SVGID_2_" gradientUnits="userSpaceOnUse" x1="398.4814" y1="155.4038" x2="385.1774" y2="147.7227" gradientTransform="matrix(-0.942 -1.6713 1.1702 -0.6596 193.2278 850.8052)">
		<stop  offset="9.158416e-02" style="stop-color:#FC1F26"/>
		<stop  offset="0.2599" style="stop-color:#FC3B1E"/>
		<stop  offset="0.4851" style="stop-color:#FFA200"/>
		<stop  offset="0.7574" style="stop-color:#FED9DB"/>
	</linearGradient>
	<path class="st3" d="M35.7,106.1l-63.6-0.9c0,0-16-7.8,13.5-23.9C46.4,88.9,35.7,106.1,35.7,106.1z"/>
</g>
<g class="st4">
	<path class="st0" d="M40.2,90.2c0,0,55,15.2,17.4,31.7s-49.1-3-43.9-13S40.2,90.2,40.2,90.2z"/>
	
		<linearGradient id="SVGID_3_" gradientUnits="userSpaceOnUse" x1="388.2743" y1="176.5322" x2="374.9702" y2="168.8511" gradientTransform="matrix(-0.942 -1.6713 1.1702 -0.6596 193.2278 850.8052)">
		<stop  offset="9.158416e-02" style="stop-color:#FC1F26"/>
		<stop  offset="0.2599" style="stop-color:#FC3B1E"/>
		<stop  offset="0.4851" style="stop-color:#FFA200"/>
		<stop  offset="0.7574" style="stop-color:#FED9DB"/>
	</linearGradient>
	<path class="st5" d="M70.1,109.2l-63.6-0.9c0,0-16-7.8,13.5-23.9C80.7,92,70.1,109.2,70.1,109.2z"/>
</g>
<g class="st2">
	<path class="st0" d="M86.4,85.8c0,0,55,15.2,17.4,31.7s-49.1-3-43.9-13S86.4,85.8,86.4,85.8z"/>
	<path class="st0" d="M116.2,104.8l-63.6-0.9c0,0-16-7.8,13.5-23.9C126.9,87.7,116.2,104.8,116.2,104.8z"/>
</g>
<g>
	<path class="st0" d="M137,98.7c0,0,55,15.2,17.4,31.7s-49.1-3-43.9-13S137,98.7,137,98.7z"/>
	
		<linearGradient id="SVGID_4_" gradientUnits="userSpaceOnUse" x1="359.6568" y1="236.209" x2="346.3527" y2="228.5279" gradientTransform="matrix(-0.942 -1.6713 1.1702 -0.6596 193.2278 850.8052)">
		<stop  offset="9.158416e-02" style="stop-color:#FC1F26"/>
		<stop  offset="0.2599" style="stop-color:#FC3B1E"/>
		<stop  offset="0.4851" style="stop-color:#FFA200"/>
		<stop  offset="0.7574" style="stop-color:#FED9DB"/>
	</linearGradient>
	<path class="st6" d="M166.9,117.7l-63.6-0.9c0,0-16-7.8,13.5-23.9C177.5,100.5,166.9,117.7,166.9,117.7z"/>
</g>
<path class="st0" d="M164.6,87c0,0-35.3,18.1-33.3,28.6c-19.2-1.4,10.9,16.9,24.4,17.2c13.5,0.4-10.3-17.4,16-17.4
	s44.9-7.7,31.4-15.6S164.6,87,164.6,87z"/>
<linearGradient id="SVGID_5_" gradientUnits="userSpaceOnUse" x1="350.4549" y1="280.2496" x2="336.411" y2="272.1414" gradientTransform="matrix(-0.942 -1.6713 1.1702 -0.6596 193.2278 850.8052)">
	<stop  offset="9.158416e-02" style="stop-color:#FC1F26"/>
	<stop  offset="0.2599" style="stop-color:#FC3B1E"/>
	<stop  offset="0.4851" style="stop-color:#FFA200"/>
	<stop  offset="0.7574" style="stop-color:#FED9DB"/>
</linearGradient>
<path class="st7" d="M230.2,105.1l-69.4-1c0,0-17.5-8.2,14.7-25.1C241.8,87.1,230.2,105.1,230.2,105.1z"/>
<g>
	<path class="st0" d="M214.5,94.8c0,0,55,15.2,17.4,31.7s-49.1-3-43.9-13C193.3,103.4,214.5,94.8,214.5,94.8z"/>
	
		<linearGradient id="SVGID_6_" gradientUnits="userSpaceOnUse" x1="341.5862" y1="287.8432" x2="328.2821" y2="280.162" gradientTransform="matrix(-0.942 -1.6713 1.1702 -0.6596 193.2278 850.8052)">
		<stop  offset="9.158416e-02" style="stop-color:#FC1F26"/>
		<stop  offset="0.2599" style="stop-color:#FC3B1E"/>
		<stop  offset="0.4851" style="stop-color:#FFA200"/>
		<stop  offset="0.7574" style="stop-color:#FED9DB"/>
	</linearGradient>
	<path class="st8" d="M244.3,113.8l-63.6-0.9c0,0-16-7.8,13.5-23.9C254.9,96.7,244.3,113.8,244.3,113.8z"/>
</g>
<g>
	<path class="st0" d="M251.4,85.3c0,0,55,15.2,17.4,31.7s-49.1-3-43.9-13C230.2,93.9,251.4,85.3,251.4,85.3z"/>
	
		<linearGradient id="SVGID_7_" gradientUnits="userSpaceOnUse" x1="336.4447" y1="315.2928" x2="323.1406" y2="307.6117" gradientTransform="matrix(-0.942 -1.6713 1.1702 -0.6596 193.2278 850.8052)">
		<stop  offset="9.158416e-02" style="stop-color:#FC1F26"/>
		<stop  offset="0.2599" style="stop-color:#FC3B1E"/>
		<stop  offset="0.4851" style="stop-color:#FFA200"/>
		<stop  offset="0.7574" style="stop-color:#FED9DB"/>
	</linearGradient>
	<path class="st9" d="M281.3,104.3l-63.6-0.9c0,0-16-7.8,13.5-23.9C291.9,87.1,281.3,104.3,281.3,104.3z"/>
</g>
<g class="st10">
	<path class="st0" d="M285.8,88.4c0,0,55,15.2,17.4,31.7s-49.1-3-43.9-13S285.8,88.4,285.8,88.4z"/>
	
		<linearGradient id="SVGID_8_" gradientUnits="userSpaceOnUse" x1="326.2375" y1="336.4212" x2="312.9335" y2="328.7401" gradientTransform="matrix(-0.942 -1.6713 1.1702 -0.6596 193.2278 850.8052)">
		<stop  offset="9.158416e-02" style="stop-color:#FC1F26"/>
		<stop  offset="0.2599" style="stop-color:#FC3B1E"/>
		<stop  offset="0.4851" style="stop-color:#FFA200"/>
		<stop  offset="0.7574" style="stop-color:#FED9DB"/>
	</linearGradient>
	<path class="st11" d="M315.6,107.4l-63.6-0.9c0,0-16-7.8,13.5-23.9C326.2,90.3,315.6,107.4,315.6,107.4z"/>
</g>
<g class="st4">
	<path class="st0" d="M331.9,84c0,0,55,15.2,17.4,31.7s-49.1-3-43.9-13C310.7,92.7,331.9,84,331.9,84z"/>
	
		<linearGradient id="SVGID_9_" gradientUnits="userSpaceOnUse" x1="316.4145" y1="367.9535" x2="303.1104" y2="360.2724" gradientTransform="matrix(-0.942 -1.6713 1.1702 -0.6596 193.2278 850.8052)">
		<stop  offset="9.158416e-02" style="stop-color:#FC1F26"/>
		<stop  offset="0.2599" style="stop-color:#FC3B1E"/>
		<stop  offset="0.4851" style="stop-color:#FFA200"/>
		<stop  offset="0.7574" style="stop-color:#FED9DB"/>
	</linearGradient>
	<path class="st12" d="M361.8,103.1l-63.6-0.9c0,0-16-7.8,13.5-23.9C372.4,85.9,361.8,103.1,361.8,103.1z"/>
</g>
<g>
	<path class="st0" d="M382.6,91.3c0,0,55,15.2,17.4,31.7s-49.1-3-43.9-13C361.4,99.9,382.6,91.3,382.6,91.3z"/>
	
		<linearGradient id="SVGID_10_" gradientUnits="userSpaceOnUse" x1="300.1407" y1="398.1273" x2="286.8366" y2="390.4462" gradientTransform="matrix(-0.942 -1.6713 1.1702 -0.6596 193.2278 850.8052)">
		<stop  offset="9.158416e-02" style="stop-color:#FC1F26"/>
		<stop  offset="0.2599" style="stop-color:#FC3B1E"/>
		<stop  offset="0.4851" style="stop-color:#FFA200"/>
		<stop  offset="0.7574" style="stop-color:#FED9DB"/>
	</linearGradient>
	<path class="st13" d="M412.4,110.4l-63.6-0.9c0,0-16-7.8,13.5-23.9C423,93.2,412.4,110.4,412.4,110.4z"/>
</g>
<path class="st14" d="M355.9,81.2c0,0-35.3,18.1-33.3,28.6c-19.2-1.4,10.9,16.9,24.4,17.2s-10.3-17.4,16-17.4
	c26.3,0,44.9-7.7,31.4-15.6S355.9,81.2,355.9,81.2z"/>
<g>
	<path class="st0" d="M401.3,88.8c0,0,56.2,15.5,17.8,32.4s-50.2-3.1-44.8-13.3C379.6,97.6,401.3,88.8,401.3,88.8z"/>
	
		<linearGradient id="SVGID_11_" gradientUnits="userSpaceOnUse" x1="296.5975" y1="411.1707" x2="282.9969" y2="403.3183" gradientTransform="matrix(-0.942 -1.6713 1.1702 -0.6596 193.2278 850.8052)">
		<stop  offset="9.158416e-02" style="stop-color:#FC1F26"/>
		<stop  offset="0.2599" style="stop-color:#FC3B1E"/>
		<stop  offset="0.4851" style="stop-color:#FFA200"/>
		<stop  offset="0.7574" style="stop-color:#FED9DB"/>
	</linearGradient>
	<path class="st15" d="M431.8,108.2l-65-1c0,0-16.4-8,13.8-24.4C442.7,90.6,431.8,108.2,431.8,108.2z"/>
</g>
<g class="st16">
	<path class="st0" d="M439.1,79c0,0,56.2,15.5,17.8,32.4s-50.2-3.1-44.8-13.3C417.4,87.8,439.1,79,439.1,79z"/>
	
		<linearGradient id="SVGID_12_" gradientUnits="userSpaceOnUse" x1="291.3414" y1="439.2323" x2="277.7407" y2="431.3799" gradientTransform="matrix(-0.942 -1.6713 1.1702 -0.6596 193.2278 850.8052)">
		<stop  offset="9.158416e-02" style="stop-color:#FC1F26"/>
		<stop  offset="0.2599" style="stop-color:#FC3B1E"/>
		<stop  offset="0.4851" style="stop-color:#FFA200"/>
		<stop  offset="0.7574" style="stop-color:#FED9DB"/>
	</linearGradient>
	<path class="st17" d="M469.6,98.5l-65-1c0,0-16.4-8,13.8-24.4C480.5,80.9,469.6,98.5,469.6,98.5z"/>
</g>
<g>
	<path class="st0" d="M474.2,82.2c0,0,56.2,15.5,17.8,32.4s-50.2-3.1-44.8-13.3C452.5,91,474.2,82.2,474.2,82.2z"/>
	
		<linearGradient id="SVGID_13_" gradientUnits="userSpaceOnUse" x1="280.9067" y1="460.8317" x2="267.3061" y2="452.9794" gradientTransform="matrix(-0.942 -1.6713 1.1702 -0.6596 193.2278 850.8052)">
		<stop  offset="9.158416e-02" style="stop-color:#FC1F26"/>
		<stop  offset="0.2599" style="stop-color:#FC3B1E"/>
		<stop  offset="0.4851" style="stop-color:#FFA200"/>
		<stop  offset="0.7574" style="stop-color:#FED9DB"/>
	</linearGradient>
	<path class="st18" d="M504.7,101.7l-65-1c0,0-16.4-8,13.8-24.4C515.6,84.1,504.7,101.7,504.7,101.7z"/>
</g>
<g>
	<path class="st0" d="M521.4,77.8c0,0,56.2,15.5,17.8,32.4s-50.2-3.1-44.8-13.3S521.4,77.8,521.4,77.8z"/>
	
		<linearGradient id="SVGID_14_" gradientUnits="userSpaceOnUse" x1="270.8647" y1="493.067" x2="257.264" y2="485.2147" gradientTransform="matrix(-0.942 -1.6713 1.1702 -0.6596 193.2278 850.8052)">
		<stop  offset="9.158416e-02" style="stop-color:#FC1F26"/>
		<stop  offset="0.2599" style="stop-color:#FC3B1E"/>
		<stop  offset="0.4851" style="stop-color:#FFA200"/>
		<stop  offset="0.7574" style="stop-color:#FED9DB"/>
	</linearGradient>
	<path class="st19" d="M551.9,97.2l-65-1c0,0-16.4-8,13.8-24.4C562.7,79.6,551.9,97.2,551.9,97.2z"/>
</g>
<g class="st20">
	<path class="st0" d="M573.1,85.2c0,0,56.2,15.5,17.8,32.4s-50.2-3.1-44.8-13.3C551.5,94,573.1,85.2,573.1,85.2z"/>
	
		<linearGradient id="SVGID_15_" gradientUnits="userSpaceOnUse" x1="254.2281" y1="523.9135" x2="240.6274" y2="516.0612" gradientTransform="matrix(-0.942 -1.6713 1.1702 -0.6596 193.2278 850.8052)">
		<stop  offset="9.158416e-02" style="stop-color:#FC1F26"/>
		<stop  offset="0.2599" style="stop-color:#FC3B1E"/>
		<stop  offset="0.4851" style="stop-color:#FFA200"/>
		<stop  offset="0.7574" style="stop-color:#FED9DB"/>
	</linearGradient>
	<path class="st21" d="M603.6,104.7l-65-1c0,0-16.4-8,13.8-24.4C614.5,87.1,603.6,104.7,603.6,104.7z"/>
</g>
<g class="st4">
	<path class="st0" d="M91.8,86.7c0,0,56.2,15.5,17.8,32.4s-50.2-3.1-44.8-13.3S91.8,86.7,91.8,86.7z"/>
	
		<linearGradient id="SVGID_16_" gradientUnits="userSpaceOnUse" x1="376.7449" y1="211.1859" x2="363.1442" y2="203.3336" gradientTransform="matrix(-0.942 -1.6713 1.1702 -0.6596 193.2278 850.8052)">
		<stop  offset="9.158416e-02" style="stop-color:#FC1F26"/>
		<stop  offset="0.2599" style="stop-color:#FC3B1E"/>
		<stop  offset="0.4851" style="stop-color:#FFA200"/>
		<stop  offset="0.7574" style="stop-color:#FED9DB"/>
	</linearGradient>
	<path class="st22" d="M122.3,106.2l-65-1c0,0-16.4-8,13.8-24.4C133.2,88.6,122.3,106.2,122.3,106.2z"/>
</g>
<g class="st10">
	<path class="st0" d="M137.1,83.5c0,0,56.2,15.5,17.8,32.4s-50.2-3.1-44.8-13.3S137.1,83.5,137.1,83.5z"/>
	
		<linearGradient id="SVGID_17_" gradientUnits="userSpaceOnUse" x1="366.5981" y1="241.7512" x2="352.9975" y2="233.8988" gradientTransform="matrix(-0.942 -1.6713 1.1702 -0.6596 193.2278 850.8052)">
		<stop  offset="9.158416e-02" style="stop-color:#FC1F26"/>
		<stop  offset="0.2599" style="stop-color:#FC3B1E"/>
		<stop  offset="0.4851" style="stop-color:#FFA200"/>
		<stop  offset="0.7574" style="stop-color:#FED9DB"/>
	</linearGradient>
	<path class="st23" d="M167.6,103l-65-1c0,0-16.4-8,13.8-24.4C178.5,85.4,167.6,103,167.6,103z"/>
</g>
<g>
	<path class="st0" d="M603.4,105.4c0,0,55,15.2,17.4,31.7c-37.6,16.5-49.1-3-43.9-13C582.2,114,603.4,105.4,603.4,105.4z"/>
	
		<linearGradient id="SVGID_18_" gradientUnits="userSpaceOnUse" x1="237.2534" y1="536.205" x2="223.9493" y2="528.5239" gradientTransform="matrix(-0.942 -1.6713 1.1702 -0.6596 193.2278 850.8052)">
		<stop  offset="9.158416e-02" style="stop-color:#FC1F26"/>
		<stop  offset="0.2599" style="stop-color:#FC3B1E"/>
		<stop  offset="0.4851" style="stop-color:#FFA200"/>
		<stop  offset="0.7574" style="stop-color:#FED9DB"/>
	</linearGradient>
	<path class="st24" d="M633.2,124.4l-63.6-0.9c0,0-16-7.8,13.5-23.9C643.8,107.2,633.2,124.4,633.2,124.4z"/>
</g>
<path class="st0" d="M631,93.7c0,0-35.3,18.1-33.3,28.6c-19.2-1.4,10.9,16.9,24.4,17.2c13.5,0.4-10.3-17.4,16-17.4
	s44.9-7.7,31.4-15.6C656,98.6,631,93.7,631,93.7z"/>
<linearGradient id="SVGID_19_" gradientUnits="userSpaceOnUse" x1="228.0515" y1="580.2456" x2="214.0077" y2="572.1374" gradientTransform="matrix(-0.942 -1.6713 1.1702 -0.6596 193.2278 850.8052)">
	<stop  offset="9.158416e-02" style="stop-color:#FC1F26"/>
	<stop  offset="0.2599" style="stop-color:#FC3B1E"/>
	<stop  offset="0.4851" style="stop-color:#FFA200"/>
	<stop  offset="0.7574" style="stop-color:#FED9DB"/>
</linearGradient>
<path class="st25" d="M696.5,111.8l-69.4-1c0,0-17.5-8.2,14.7-25.1C708.1,93.8,696.5,111.8,696.5,111.8z"/>
<g>
	<path class="st0" d="M680.8,101.5c0,0,55,15.2,17.4,31.7s-49.1-3-43.9-13C659.6,110.1,680.8,101.5,680.8,101.5z"/>
	
		<linearGradient id="SVGID_20_" gradientUnits="userSpaceOnUse" x1="219.1828" y1="587.8391" x2="205.8787" y2="580.158" gradientTransform="matrix(-0.942 -1.6713 1.1702 -0.6596 193.2278 850.8052)">
		<stop  offset="9.158416e-02" style="stop-color:#FC1F26"/>
		<stop  offset="0.2599" style="stop-color:#FC3B1E"/>
		<stop  offset="0.4851" style="stop-color:#FFA200"/>
		<stop  offset="0.7574" style="stop-color:#FED9DB"/>
	</linearGradient>
	<path class="st26" d="M710.7,120.5l-63.6-0.9c0,0-16-7.8,13.5-23.9C721.3,103.4,710.7,120.5,710.7,120.5z"/>
</g>
<g class="st20">
	<path class="st0" d="M717.8,92c0,0,55,15.2,17.4,31.7s-49.1-3-43.9-13C696.6,100.6,717.8,92,717.8,92z"/>
	
		<linearGradient id="SVGID_21_" gradientUnits="userSpaceOnUse" x1="214.0413" y1="615.2888" x2="200.7372" y2="607.6077" gradientTransform="matrix(-0.942 -1.6713 1.1702 -0.6596 193.2278 850.8052)">
		<stop  offset="9.158416e-02" style="stop-color:#FC1F26"/>
		<stop  offset="0.2599" style="stop-color:#FC3B1E"/>
		<stop  offset="0.4851" style="stop-color:#FFA200"/>
		<stop  offset="0.7574" style="stop-color:#FED9DB"/>
	</linearGradient>
	<path class="st27" d="M747.6,111l-63.6-0.9c0,0-16-7.8,13.5-23.9C758.2,93.8,747.6,111,747.6,111z"/>
</g>
<g>
	<path class="st0" d="M752.1,95.1c0,0,55,15.2,17.4,31.7c-37.6,16.5-49.1-3-43.9-13S752.1,95.1,752.1,95.1z"/>
	
		<linearGradient id="SVGID_22_" gradientUnits="userSpaceOnUse" x1="203.8342" y1="636.4172" x2="190.5301" y2="628.736" gradientTransform="matrix(-0.942 -1.6713 1.1702 -0.6596 193.2278 850.8052)">
		<stop  offset="9.158416e-02" style="stop-color:#FC1F26"/>
		<stop  offset="0.2599" style="stop-color:#FC3B1E"/>
		<stop  offset="0.4851" style="stop-color:#FFA200"/>
		<stop  offset="0.7574" style="stop-color:#FED9DB"/>
	</linearGradient>
	<path class="st28" d="M782,114.1l-63.6-0.9c0,0-16-7.8,13.5-23.9C792.6,97,782,114.1,782,114.1z"/>
</g>
<g class="st20">
	<path class="st0" d="M798.3,90.7c0,0,55,15.2,17.4,31.7c-37.6,16.5-49.1-3-43.9-13C777.1,99.4,798.3,90.7,798.3,90.7z"/>
	
		<linearGradient id="SVGID_23_" gradientUnits="userSpaceOnUse" x1="194.0111" y1="667.9495" x2="180.707" y2="660.2684" gradientTransform="matrix(-0.942 -1.6713 1.1702 -0.6596 193.2278 850.8052)">
		<stop  offset="9.158416e-02" style="stop-color:#FC1F26"/>
		<stop  offset="0.2599" style="stop-color:#FC3B1E"/>
		<stop  offset="0.4851" style="stop-color:#FFA200"/>
		<stop  offset="0.7574" style="stop-color:#FED9DB"/>
	</linearGradient>
	<path class="st29" d="M828.1,109.8l-63.6-0.9c0,0-16-7.8,13.5-23.9C838.7,92.6,828.1,109.8,828.1,109.8z"/>
</g>
<g>
	<path class="st0" d="M848.9,98c0,0,55,15.2,17.4,31.7c-37.6,16.5-49.1-3-43.9-13C827.7,106.6,848.9,98,848.9,98z"/>
	
		<linearGradient id="SVGID_24_" gradientUnits="userSpaceOnUse" x1="177.7374" y1="698.1232" x2="164.4333" y2="690.4421" gradientTransform="matrix(-0.942 -1.6713 1.1702 -0.6596 193.2278 850.8052)">
		<stop  offset="9.158416e-02" style="stop-color:#FC1F26"/>
		<stop  offset="0.2599" style="stop-color:#FC3B1E"/>
		<stop  offset="0.4851" style="stop-color:#FFA200"/>
		<stop  offset="0.7574" style="stop-color:#FED9DB"/>
	</linearGradient>
	<path class="st30" d="M878.7,117.1l-63.6-0.9c0,0-16-7.8,13.5-23.9C889.4,99.9,878.7,117.1,878.7,117.1z"/>
</g>
<path class="st14" d="M822.2,81.2c0,0-35.3,18.1-33.3,28.6c-19.2-1.4,10.9,16.9,24.4,17.2c13.5,0.4-10.3-17.4,16-17.4
	s44.9-7.7,31.4-15.6C847.2,86.1,822.2,81.2,822.2,81.2z"/>
<g>
	<path class="st0" d="M867.7,95.5c0,0,56.2,15.5,17.8,32.4s-50.2-3.1-44.8-13.3C846,104.3,867.7,95.5,867.7,95.5z"/>
	
		<linearGradient id="SVGID_25_" gradientUnits="userSpaceOnUse" x1="174.1942" y1="711.1667" x2="160.5935" y2="703.3143" gradientTransform="matrix(-0.942 -1.6713 1.1702 -0.6596 193.2278 850.8052)">
		<stop  offset="9.158416e-02" style="stop-color:#FC1F26"/>
		<stop  offset="0.2599" style="stop-color:#FC3B1E"/>
		<stop  offset="0.4851" style="stop-color:#FFA200"/>
		<stop  offset="0.7574" style="stop-color:#FED9DB"/>
	</linearGradient>
	<path class="st31" d="M898.1,114.9l-65-1c0,0-16.4-8,13.8-24.4C909,97.3,898.1,114.9,898.1,114.9z"/>
</g>
<g>
	<path class="st0" d="M603.5,90.2c0,0,56.2,15.5,17.8,32.4s-50.2-3.1-44.8-13.3S603.5,90.2,603.5,90.2z"/>
	
		<linearGradient id="SVGID_26_" gradientUnits="userSpaceOnUse" x1="244.1948" y1="541.7472" x2="230.5941" y2="533.8948" gradientTransform="matrix(-0.942 -1.6713 1.1702 -0.6596 193.2278 850.8052)">
		<stop  offset="9.158416e-02" style="stop-color:#FC1F26"/>
		<stop  offset="0.2599" style="stop-color:#FC3B1E"/>
		<stop  offset="0.4851" style="stop-color:#FFA200"/>
		<stop  offset="0.7574" style="stop-color:#FED9DB"/>
	</linearGradient>
	<path class="st32" d="M634,109.7l-65-1c0,0-16.4-8,13.8-24.4C644.8,92.1,634,109.7,634,109.7z"/>
</g>
<polygon class="st0" points="9.3,119.4 79.3,101 213.4,106 302.9,134.8 76.9,134.8 "/>
<polygon class="st14" points="212.2,129.1 494.2,96.8 675.2,103.8 733.2,133.1 192.2,147.4 204.2,130.4 "/>
<polygon class="st0" points="-210,129.7 633.6,107.5 934.7,117.9 928.4,133.5 -37.5,133.5 "/>
<polygon class="st14" points="-217.5,128.6 -84.4,106.8 131.7,117.4 231,131.3 204.8,135.5 -254.5,135.2 "/>
<polygon class="st0" points="-198.4,121.1 -8,99 60,109.3 58.6,125 -159.5,125 "/>
<polygon class="st14" points="19.5,135.8 301.5,103.5 482.5,110.5 540.5,139.8 -0.5,154.1 11.5,137.1 "/>
<g>
	<path class="st0" d="M379.8,75.9c0,0,55,15.2,17.4,31.7s-49.1-3-43.9-13C358.6,84.5,379.8,75.9,379.8,75.9z"/>
	
		<linearGradient id="SVGID_27_" gradientUnits="userSpaceOnUse" x1="307.874" y1="401.9751" x2="294.5699" y2="394.294" gradientTransform="matrix(-0.942 -1.6713 1.1702 -0.6596 193.2278 850.8052)">
		<stop  offset="9.158416e-02" style="stop-color:#FC1F26"/>
		<stop  offset="0.2599" style="stop-color:#FC3B1E"/>
		<stop  offset="0.4851" style="stop-color:#FFA200"/>
		<stop  offset="0.7574" style="stop-color:#FED9DB"/>
	</linearGradient>
	<path class="st33" d="M409.6,94.9L346,94c0,0-16-7.8,13.5-23.9C420.2,77.7,409.6,94.9,409.6,94.9z"/>
</g>
<g class="st4">
	<path class="st0" d="M414.1,79c0,0,55,15.2,17.4,31.7s-49.1-3-43.9-13S414.1,79,414.1,79z"/>
	
		<linearGradient id="SVGID_28_" gradientUnits="userSpaceOnUse" x1="297.6669" y1="423.1035" x2="284.3628" y2="415.4224" gradientTransform="matrix(-0.942 -1.6713 1.1702 -0.6596 193.2278 850.8052)">
		<stop  offset="9.158416e-02" style="stop-color:#FC1F26"/>
		<stop  offset="0.2599" style="stop-color:#FC3B1E"/>
		<stop  offset="0.4851" style="stop-color:#FFA200"/>
		<stop  offset="0.7574" style="stop-color:#FED9DB"/>
	</linearGradient>
	<path class="st34" d="M444,98l-63.6-0.9c0,0-16-7.8,13.5-23.9C454.6,80.8,444,98,444,98z"/>
</g>
<g class="st2">
	<path class="st0" d="M460.3,74.6c0,0,55,15.2,17.4,31.7s-49.1-3-43.9-13C439.1,83.2,460.3,74.6,460.3,74.6z"/>
	<path class="st0" d="M490.1,93.6l-63.6-0.9c0,0-16-7.8,13.5-23.9C500.7,76.5,490.1,93.6,490.1,93.6z"/>
</g>
<g>
	<path class="st0" d="M510.9,87.5c0,0,55,15.2,17.4,31.7s-49.1-3-43.9-13C489.7,96.1,510.9,87.5,510.9,87.5z"/>
	
		<linearGradient id="SVGID_29_" gradientUnits="userSpaceOnUse" x1="269.0493" y1="482.7803" x2="255.7453" y2="475.0992" gradientTransform="matrix(-0.942 -1.6713 1.1702 -0.6596 193.2278 850.8052)">
		<stop  offset="9.158416e-02" style="stop-color:#FC1F26"/>
		<stop  offset="0.2599" style="stop-color:#FC3B1E"/>
		<stop  offset="0.4851" style="stop-color:#FFA200"/>
		<stop  offset="0.7574" style="stop-color:#FED9DB"/>
	</linearGradient>
	<path class="st35" d="M540.7,106.5l-63.6-0.9c0,0-16-7.8,13.5-23.9C551.4,89.3,540.7,106.5,540.7,106.5z"/>
</g>
<path class="st0" d="M538.5,75.8c0,0-35.3,18.1-33.3,28.6c-19.2-1.4,10.9,16.9,24.4,17.2c13.5,0.4-10.3-17.4,16-17.4
	s44.9-7.7,31.4-15.6C563.5,80.7,538.5,75.8,538.5,75.8z"/>
<linearGradient id="SVGID_30_" gradientUnits="userSpaceOnUse" x1="259.8474" y1="526.8209" x2="245.8036" y2="518.7127" gradientTransform="matrix(-0.942 -1.6713 1.1702 -0.6596 193.2278 850.8052)">
	<stop  offset="9.158416e-02" style="stop-color:#FC1F26"/>
	<stop  offset="0.2599" style="stop-color:#FC3B1E"/>
	<stop  offset="0.4851" style="stop-color:#FFA200"/>
	<stop  offset="0.7574" style="stop-color:#FED9DB"/>
</linearGradient>
<path class="st36" d="M604.1,93.9l-69.4-1c0,0-17.5-8.2,14.7-25.1C615.7,75.9,604.1,93.9,604.1,93.9z"/>
<g>
	<path class="st0" d="M588.4,83.6c0,0,55,15.2,17.4,31.7s-49.1-3-43.9-13C567.1,92.2,588.4,83.6,588.4,83.6z"/>
	
		<linearGradient id="SVGID_31_" gradientUnits="userSpaceOnUse" x1="250.9787" y1="534.4144" x2="237.6747" y2="526.7333" gradientTransform="matrix(-0.942 -1.6713 1.1702 -0.6596 193.2278 850.8052)">
		<stop  offset="9.158416e-02" style="stop-color:#FC1F26"/>
		<stop  offset="0.2599" style="stop-color:#FC3B1E"/>
		<stop  offset="0.4851" style="stop-color:#FFA200"/>
		<stop  offset="0.7574" style="stop-color:#FED9DB"/>
	</linearGradient>
	<path class="st37" d="M618.2,102.6l-63.6-0.9c0,0-16-7.8,13.5-23.9C628.8,85.5,618.2,102.6,618.2,102.6z"/>
</g>
<g>
	<path class="st0" d="M625.3,74.1c0,0,55,15.2,17.4,31.7s-49.1-3-43.9-13C604.1,82.7,625.3,74.1,625.3,74.1z"/>
	
		<linearGradient id="SVGID_32_" gradientUnits="userSpaceOnUse" x1="245.8372" y1="561.8641" x2="232.5332" y2="554.183" gradientTransform="matrix(-0.942 -1.6713 1.1702 -0.6596 193.2278 850.8052)">
		<stop  offset="9.158416e-02" style="stop-color:#FC1F26"/>
		<stop  offset="0.2599" style="stop-color:#FC3B1E"/>
		<stop  offset="0.4851" style="stop-color:#FFA200"/>
		<stop  offset="0.7574" style="stop-color:#FED9DB"/>
	</linearGradient>
	<path class="st38" d="M655.1,93.1l-63.6-0.9c0,0-16-7.8,13.5-23.9C665.8,75.9,655.1,93.1,655.1,93.1z"/>
</g>
<g class="st10">
	<path class="st0" d="M659.7,77.2c0,0,55,15.2,17.4,31.7c-37.6,16.5-49.1-3-43.9-13C638.4,85.8,659.7,77.2,659.7,77.2z"/>
	
		<linearGradient id="SVGID_33_" gradientUnits="userSpaceOnUse" x1="235.6301" y1="582.9924" x2="222.326" y2="575.3113" gradientTransform="matrix(-0.942 -1.6713 1.1702 -0.6596 193.2278 850.8052)">
		<stop  offset="9.158416e-02" style="stop-color:#FC1F26"/>
		<stop  offset="0.2599" style="stop-color:#FC3B1E"/>
		<stop  offset="0.4851" style="stop-color:#FFA200"/>
		<stop  offset="0.7574" style="stop-color:#FED9DB"/>
	</linearGradient>
	<path class="st39" d="M689.5,96.2l-63.6-0.9c0,0-16-7.8,13.5-23.9C700.1,79.1,689.5,96.2,689.5,96.2z"/>
</g>
<g class="st4">
	<path class="st0" d="M705.8,72.8c0,0,55,15.2,17.4,31.7c-37.6,16.5-49.1-3-43.9-13S705.8,72.8,705.8,72.8z"/>
	
		<linearGradient id="SVGID_34_" gradientUnits="userSpaceOnUse" x1="225.807" y1="614.5248" x2="212.503" y2="606.8437" gradientTransform="matrix(-0.942 -1.6713 1.1702 -0.6596 193.2278 850.8052)">
		<stop  offset="9.158416e-02" style="stop-color:#FC1F26"/>
		<stop  offset="0.2599" style="stop-color:#FC3B1E"/>
		<stop  offset="0.4851" style="stop-color:#FFA200"/>
		<stop  offset="0.7574" style="stop-color:#FED9DB"/>
	</linearGradient>
	<path class="st40" d="M735.6,91.9L672,90.9c0,0-16-7.8,13.5-23.9C746.3,74.7,735.6,91.9,735.6,91.9z"/>
</g>
<g>
	<path class="st0" d="M756.5,80.1c0,0,55,15.2,17.4,31.7c-37.6,16.5-49.1-3-43.9-13S756.5,80.1,756.5,80.1z"/>
	
		<linearGradient id="SVGID_35_" gradientUnits="userSpaceOnUse" x1="209.5333" y1="644.6985" x2="196.2292" y2="637.0175" gradientTransform="matrix(-0.942 -1.6713 1.1702 -0.6596 193.2278 850.8052)">
		<stop  offset="9.158416e-02" style="stop-color:#FC1F26"/>
		<stop  offset="0.2599" style="stop-color:#FC3B1E"/>
		<stop  offset="0.4851" style="stop-color:#FFA200"/>
		<stop  offset="0.7574" style="stop-color:#FED9DB"/>
	</linearGradient>
	<path class="st41" d="M786.3,99.2l-63.6-0.9c0,0-16-7.8,13.5-23.9C796.9,82,786.3,99.2,786.3,99.2z"/>
</g>
<path class="st14" d="M729.8,70c0,0-35.3,18.1-33.3,28.6c-19.2-1.4,10.9,16.9,24.4,17.2c13.5,0.4-10.3-17.4,16-17.4
	s44.9-7.7,31.4-15.6C754.8,74.9,729.8,70,729.8,70z"/>
<g>
	<path class="st0" d="M775.2,77.6c0,0,56.2,15.5,17.8,32.4s-50.2-3.1-44.8-13.3C753.5,86.4,775.2,77.6,775.2,77.6z"/>
	
		<linearGradient id="SVGID_36_" gradientUnits="userSpaceOnUse" x1="205.9901" y1="657.7419" x2="192.3894" y2="649.8896" gradientTransform="matrix(-0.942 -1.6713 1.1702 -0.6596 193.2278 850.8052)">
		<stop  offset="9.158416e-02" style="stop-color:#FC1F26"/>
		<stop  offset="0.2599" style="stop-color:#FC3B1E"/>
		<stop  offset="0.4851" style="stop-color:#FFA200"/>
		<stop  offset="0.7574" style="stop-color:#FED9DB"/>
	</linearGradient>
	<path class="st42" d="M805.7,97l-65-1c0,0-16.4-8,13.8-24.4C816.5,79.4,805.7,97,805.7,97z"/>
</g>
<g class="st16">
	<path class="st0" d="M813,67.8c0,0,56.2,15.5,17.8,32.4s-50.2-3.1-44.8-13.3C791.3,76.6,813,67.8,813,67.8z"/>
	
		<linearGradient id="SVGID_37_" gradientUnits="userSpaceOnUse" x1="200.734" y1="685.8036" x2="187.1333" y2="677.9512" gradientTransform="matrix(-0.942 -1.6713 1.1702 -0.6596 193.2278 850.8052)">
		<stop  offset="9.158416e-02" style="stop-color:#FC1F26"/>
		<stop  offset="0.2599" style="stop-color:#FC3B1E"/>
		<stop  offset="0.4851" style="stop-color:#FFA200"/>
		<stop  offset="0.7574" style="stop-color:#FED9DB"/>
	</linearGradient>
	<path class="st43" d="M843.5,87.3l-65-1c0,0-16.4-8,13.8-24.4C854.3,69.7,843.5,87.3,843.5,87.3z"/>
</g>
<g>
	<path class="st0" d="M848.1,71c0,0,56.2,15.5,17.8,32.4s-50.2-3.1-44.8-13.3S848.1,71,848.1,71z"/>
	
		<linearGradient id="SVGID_38_" gradientUnits="userSpaceOnUse" x1="190.2993" y1="707.403" x2="176.6986" y2="699.5507" gradientTransform="matrix(-0.942 -1.6713 1.1702 -0.6596 193.2278 850.8052)">
		<stop  offset="9.158416e-02" style="stop-color:#FC1F26"/>
		<stop  offset="0.2599" style="stop-color:#FC3B1E"/>
		<stop  offset="0.4851" style="stop-color:#FFA200"/>
		<stop  offset="0.7574" style="stop-color:#FED9DB"/>
	</linearGradient>
	<path class="st44" d="M878.6,90.5l-65-1c0,0-16.4-8,13.8-24.4C889.4,72.9,878.6,90.5,878.6,90.5z"/>
</g>
<g>
	<path class="st0" d="M895.3,66.5c0,0,56.2,15.5,17.8,32.4s-50.2-3.1-44.8-13.3C873.6,75.4,895.3,66.5,895.3,66.5z"/>
	
		<linearGradient id="SVGID_39_" gradientUnits="userSpaceOnUse" x1="180.2572" y1="739.6383" x2="166.6566" y2="731.7859" gradientTransform="matrix(-0.942 -1.6713 1.1702 -0.6596 193.2278 850.8052)">
		<stop  offset="9.158416e-02" style="stop-color:#FC1F26"/>
		<stop  offset="0.2599" style="stop-color:#FC3B1E"/>
		<stop  offset="0.4851" style="stop-color:#FFA200"/>
		<stop  offset="0.7574" style="stop-color:#FED9DB"/>
	</linearGradient>
	<path class="st45" d="M925.8,86l-65-1c0,0-16.4-8,13.8-24.4C936.6,68.4,925.8,86,925.8,86z"/>
</g>
<g class="st20">
	<path class="st0" d="M947,74c0,0,56.2,15.5,17.8,32.4s-50.2-3.1-44.8-13.3S947,74,947,74z"/>
	
		<linearGradient id="SVGID_40_" gradientUnits="userSpaceOnUse" x1="163.6207" y1="770.4847" x2="150.02" y2="762.6324" gradientTransform="matrix(-0.942 -1.6713 1.1702 -0.6596 193.2278 850.8052)">
		<stop  offset="9.158416e-02" style="stop-color:#FC1F26"/>
		<stop  offset="0.2599" style="stop-color:#FC3B1E"/>
		<stop  offset="0.4851" style="stop-color:#FFA200"/>
		<stop  offset="0.7574" style="stop-color:#FED9DB"/>
	</linearGradient>
	<path class="st46" d="M977.5,93.5l-65-1c0,0-16.4-8,13.8-24.4C988.4,75.9,977.5,93.5,977.5,93.5z"/>
</g>
<g class="st4">
	<path class="st0" d="M465.7,75.5c0,0,56.2,15.5,17.8,32.4s-50.2-3.1-44.8-13.3C444,84.3,465.7,75.5,465.7,75.5z"/>
	
		<linearGradient id="SVGID_41_" gradientUnits="userSpaceOnUse" x1="286.1375" y1="457.7572" x2="272.5368" y2="449.9048" gradientTransform="matrix(-0.942 -1.6713 1.1702 -0.6596 193.2278 850.8052)">
		<stop  offset="9.158416e-02" style="stop-color:#FC1F26"/>
		<stop  offset="0.2599" style="stop-color:#FC3B1E"/>
		<stop  offset="0.4851" style="stop-color:#FFA200"/>
		<stop  offset="0.7574" style="stop-color:#FED9DB"/>
	</linearGradient>
	<path class="st47" d="M496.2,95l-65-1c0,0-16.4-8,13.8-24.4C507,77.4,496.2,95,496.2,95z"/>
</g>
<g class="st10">
	<path class="st0" d="M511,72.3c0,0,56.2,15.5,17.8,32.4s-50.2-3.1-44.8-13.3C489.3,81.1,511,72.3,511,72.3z"/>
	
		<linearGradient id="SVGID_42_" gradientUnits="userSpaceOnUse" x1="275.9907" y1="488.3225" x2="262.39" y2="480.4701" gradientTransform="matrix(-0.942 -1.6713 1.1702 -0.6596 193.2278 850.8052)">
		<stop  offset="9.158416e-02" style="stop-color:#FC1F26"/>
		<stop  offset="0.2599" style="stop-color:#FC3B1E"/>
		<stop  offset="0.4851" style="stop-color:#FFA200"/>
		<stop  offset="0.7574" style="stop-color:#FED9DB"/>
	</linearGradient>
	<path class="st48" d="M541.5,91.8l-65-1c0,0-16.4-8,13.8-24.4C552.4,74.2,541.5,91.8,541.5,91.8z"/>
</g>
<g>
	<path class="st0" d="M977.3,94.2c0,0,55,15.2,17.4,31.7c-37.6,16.5-49.1-3-43.9-13C956,102.8,977.3,94.2,977.3,94.2z"/>
	
		<linearGradient id="SVGID_43_" gradientUnits="userSpaceOnUse" x1="146.646" y1="782.7762" x2="133.3419" y2="775.0952" gradientTransform="matrix(-0.942 -1.6713 1.1702 -0.6596 193.2278 850.8052)">
		<stop  offset="9.158416e-02" style="stop-color:#FC1F26"/>
		<stop  offset="0.2599" style="stop-color:#FC3B1E"/>
		<stop  offset="0.4851" style="stop-color:#FFA200"/>
		<stop  offset="0.7574" style="stop-color:#FED9DB"/>
	</linearGradient>
	<path class="st49" d="M1007.1,113.2l-63.6-0.9c0,0-16-7.8,13.5-23.9C1017.7,96,1007.1,113.2,1007.1,113.2z"/>
</g>
<path class="st0" d="M1004.9,82.5c0,0-35.3,18.1-33.3,28.6c-19.2-1.4,10.9,16.9,24.4,17.2c13.5,0.4-10.3-17.4,16-17.4
	c26.3,0,44.9-7.7,31.4-15.6C1029.9,87.4,1004.9,82.5,1004.9,82.5z"/>
<linearGradient id="SVGID_44_" gradientUnits="userSpaceOnUse" x1="137.4441" y1="826.8169" x2="123.4003" y2="818.7087" gradientTransform="matrix(-0.942 -1.6713 1.1702 -0.6596 193.2278 850.8052)">
	<stop  offset="9.158416e-02" style="stop-color:#FC1F26"/>
	<stop  offset="0.2599" style="stop-color:#FC3B1E"/>
	<stop  offset="0.4851" style="stop-color:#FFA200"/>
	<stop  offset="0.7574" style="stop-color:#FED9DB"/>
</linearGradient>
<path class="st50" d="M1070.4,100.6l-69.4-1c0,0-17.5-8.2,14.7-25.1C1082,82.6,1070.4,100.6,1070.4,100.6z"/>
<g>
	<path class="st0" d="M1054.7,90.3c0,0,55,15.2,17.4,31.7s-49.1-3-43.9-13C1033.5,98.9,1054.7,90.3,1054.7,90.3z"/>
	
		<linearGradient id="SVGID_45_" gradientUnits="userSpaceOnUse" x1="128.5754" y1="834.4104" x2="115.2713" y2="826.7293" gradientTransform="matrix(-0.942 -1.6713 1.1702 -0.6596 193.2278 850.8052)">
		<stop  offset="9.158416e-02" style="stop-color:#FC1F26"/>
		<stop  offset="0.2599" style="stop-color:#FC3B1E"/>
		<stop  offset="0.4851" style="stop-color:#FFA200"/>
		<stop  offset="0.7574" style="stop-color:#FED9DB"/>
	</linearGradient>
	<path class="st51" d="M1084.5,109.3l-63.6-0.9c0,0-16-7.8,13.5-23.9C1095.2,92.2,1084.5,109.3,1084.5,109.3z"/>
</g>
<g class="st20">
	<path class="st0" d="M1091.7,80.8c0,0,55,15.2,17.4,31.7s-49.1-3-43.9-13C1070.5,89.4,1091.7,80.8,1091.7,80.8z"/>
	
		<linearGradient id="SVGID_46_" gradientUnits="userSpaceOnUse" x1="123.4339" y1="861.86" x2="110.1298" y2="854.179" gradientTransform="matrix(-0.942 -1.6713 1.1702 -0.6596 193.2278 850.8052)">
		<stop  offset="9.158416e-02" style="stop-color:#FC1F26"/>
		<stop  offset="0.2599" style="stop-color:#FC3B1E"/>
		<stop  offset="0.4851" style="stop-color:#FFA200"/>
		<stop  offset="0.7574" style="stop-color:#FED9DB"/>
	</linearGradient>
	<path class="st52" d="M1121.5,99.8l-63.6-0.9c0,0-16-7.8,13.5-23.9C1132.1,82.6,1121.5,99.8,1121.5,99.8z"/>
</g>
<g>
	<path class="st0" d="M1126,83.9c0,0,55,15.2,17.4,31.7s-49.1-3-43.9-13C1104.8,92.5,1126,83.9,1126,83.9z"/>
	
		<linearGradient id="SVGID_47_" gradientUnits="userSpaceOnUse" x1="113.2268" y1="882.9884" x2="99.9227" y2="875.3073" gradientTransform="matrix(-0.942 -1.6713 1.1702 -0.6596 193.2278 850.8052)">
		<stop  offset="9.158416e-02" style="stop-color:#FC1F26"/>
		<stop  offset="0.2599" style="stop-color:#FC3B1E"/>
		<stop  offset="0.4851" style="stop-color:#FFA200"/>
		<stop  offset="0.7574" style="stop-color:#FED9DB"/>
	</linearGradient>
	<path class="st53" d="M1155.8,102.9l-63.6-0.9c0,0-16-7.8,13.5-23.9C1166.5,85.8,1155.8,102.9,1155.8,102.9z"/>
</g>
<g class="st20">
	<path class="st0" d="M1172.2,79.5c0,0,55,15.2,17.4,31.7c-37.6,16.5-49.1-3-43.9-13S1172.2,79.5,1172.2,79.5z"/>
	
		<linearGradient id="SVGID_48_" gradientUnits="userSpaceOnUse" x1="103.4037" y1="914.5208" x2="90.0996" y2="906.8397" gradientTransform="matrix(-0.942 -1.6713 1.1702 -0.6596 193.2278 850.8052)">
		<stop  offset="9.158416e-02" style="stop-color:#FC1F26"/>
		<stop  offset="0.2599" style="stop-color:#FC3B1E"/>
		<stop  offset="0.4851" style="stop-color:#FFA200"/>
		<stop  offset="0.7574" style="stop-color:#FED9DB"/>
	</linearGradient>
	<path class="st54" d="M1202,98.6l-63.6-0.9c0,0-16-7.8,13.5-23.9C1212.6,81.4,1202,98.6,1202,98.6z"/>
</g>
<g>
	<path class="st0" d="M1222.8,86.8c0,0,55,15.2,17.4,31.7c-37.6,16.5-49.1-3-43.9-13S1222.8,86.8,1222.8,86.8z"/>
	
		<linearGradient id="SVGID_49_" gradientUnits="userSpaceOnUse" x1="87.1299" y1="944.6945" x2="73.8259" y2="937.0134" gradientTransform="matrix(-0.942 -1.6713 1.1702 -0.6596 193.2278 850.8052)">
		<stop  offset="9.158416e-02" style="stop-color:#FC1F26"/>
		<stop  offset="0.2599" style="stop-color:#FC3B1E"/>
		<stop  offset="0.4851" style="stop-color:#FFA200"/>
		<stop  offset="0.7574" style="stop-color:#FED9DB"/>
	</linearGradient>
	<path class="st55" d="M1252.6,105.9l-63.6-0.9c0,0-16-7.8,13.5-23.9C1263.3,88.7,1252.6,105.9,1252.6,105.9z"/>
</g>
<path class="st14" d="M1196.1,70c0,0-35.3,18.1-33.3,28.6c-19.2-1.4,10.9,16.9,24.4,17.2s-10.3-17.4,16-17.4
	c26.3,0,44.9-7.7,31.4-15.6S1196.1,70,1196.1,70z"/>
<g>
	<path class="st0" d="M1241.5,84.3c0,0,56.2,15.5,17.8,32.4c-38.5,16.8-50.2-3.1-44.8-13.3C1219.8,93.1,1241.5,84.3,1241.5,84.3z"/>
	
		<linearGradient id="SVGID_50_" gradientUnits="userSpaceOnUse" x1="83.5868" y1="957.7379" x2="69.9861" y2="949.8856" gradientTransform="matrix(-0.942 -1.6713 1.1702 -0.6596 193.2278 850.8052)">
		<stop  offset="9.158416e-02" style="stop-color:#FC1F26"/>
		<stop  offset="0.2599" style="stop-color:#FC3B1E"/>
		<stop  offset="0.4851" style="stop-color:#FFA200"/>
		<stop  offset="0.7574" style="stop-color:#FED9DB"/>
	</linearGradient>
	<path class="st56" d="M1272,103.7l-65-1c0,0-16.4-8,13.8-24.4C1282.9,86.1,1272,103.7,1272,103.7z"/>
</g>
<g>
	<path class="st0" d="M977.3,79c0,0,56.2,15.5,17.8,32.4c-38.5,16.8-50.2-3.1-44.8-13.3C955.7,87.8,977.3,79,977.3,79z"/>
	
		<linearGradient id="SVGID_51_" gradientUnits="userSpaceOnUse" x1="153.5874" y1="788.3184" x2="139.9867" y2="780.4661" gradientTransform="matrix(-0.942 -1.6713 1.1702 -0.6596 193.2278 850.8052)">
		<stop  offset="9.158416e-02" style="stop-color:#FC1F26"/>
		<stop  offset="0.2599" style="stop-color:#FC3B1E"/>
		<stop  offset="0.4851" style="stop-color:#FFA200"/>
		<stop  offset="0.7574" style="stop-color:#FED9DB"/>
	</linearGradient>
	<path class="st57" d="M1007.8,98.5l-65-1c0,0-16.4-8,13.8-24.4C1018.7,80.9,1007.8,98.5,1007.8,98.5z"/>
</g>
<polygon class="st0" points="383.2,108.2 453.2,89.8 587.3,94.8 676.8,123.6 450.8,123.6 "/>
<polygon class="st14" points="586.1,117.9 868.1,85.6 1049.1,92.6 1107.1,121.9 566.1,136.1 578.1,119.2 "/>
<polygon class="st0" points="163.8,118.5 1007.5,96.3 1308.6,106.7 1302.3,122.3 336.3,122.3 "/>
<polygon class="st14" points="156.3,117.4 289.4,95.6 505.6,106.2 604.9,120 578.7,124.3 119.4,124 "/>
<polygon class="st0" points="175.5,109.9 365.9,87.8 433.9,98.1 432.5,113.8 214.4,113.8 "/>
<polygon class="st14" points="393.4,124.6 675.4,92.3 856.4,99.3 914.4,128.6 373.4,142.8 385.4,125.9 "/>
</svg>
