<?xml version="1.0" encoding="utf-8"?>
<!-- Generator: Adobe Illustrator 22.0.0, SVG Export Plug-In . SVG Version: 6.00 Build 0)  -->
<svg version="1.1" id="Layer_1" xmlns="http://www.w3.org/2000/svg" xmlns:xlink="http://www.w3.org/1999/xlink" x="0px" y="0px"
	 viewBox="0 0 496 496" style="enable-background:new 0 0 496 496;" xml:space="preserve">
<style type="text/css">
	.st0{fill:#EBAD00;stroke:#000000;stroke-width:12;stroke-miterlimit:10;}
	.st1{fill:none;stroke:#000000;stroke-width:16;stroke-miterlimit:10;}
	.st2{fill:#FFFFFF;stroke:#000000;stroke-width:12;stroke-miterlimit:10;}
	.st3{fill:#EBAD00;}
	.st4{fill:none;stroke:#000000;stroke-width:10;stroke-miterlimit:10;}
	.st5{fill:none;stroke:#000000;stroke-width:12;stroke-miterlimit:10;}
	.st6{fill:#EBAD00;stroke:#FFFFFF;stroke-miterlimit:10;}
	.st7{fill:#FFFFFF;}
</style>
<g>
	<path class="st0" d="M371.6,157.7l24.5-70.6c-37.7-13.1-78.8,6.9-91.8,44.6s6.9,78.8,44.6,91.8c14.3,4.9,29.1,5.1,42.7,1.4
		L371.6,157.7z"/>
	<path class="st1" d="M226.8,80.5"/>
	<path class="st2" d="M331.7,151.8V77c-39.9,0-72.2,32.3-72.2,72.2s32.3,72.2,72.2,72.2c15.2,0,29.3-4.7,40.8-12.7L331.7,151.8z"/>
	<g>
		<g>
			<rect x="46.6" y="303.6" class="st3" width="127.1" height="12.1"/>
		</g>
	</g>
	<g>
		<g>
			<rect x="46.6" y="327.7" class="st3" width="127.1" height="12.1"/>
		</g>
	</g>
	<g>
		<g>
			<rect x="46.6" y="279.4" class="st3" width="88" height="12.1"/>
		</g>
	</g>
	<g>
		<g>
			<rect x="46.6" y="356.8" class="st3" width="88" height="12.1"/>
		</g>
	</g>
	<g>
		<rect x="46.6" y="382" class="st3" width="142.9" height="58.8"/>
	</g>
	<line class="st4" x1="208.2" y1="297.1" x2="289.1" y2="297.1"/>
	<rect x="31.4" y="246" class="st1" width="173.4" height="211.6"/>
	<rect x="39.2" y="114.6" class="st1" width="155.8" height="69.3"/>
	<rect x="265.4" y="337.3" class="st1" width="140.6" height="134.8"/>
	<line class="st5" x1="289.1" y1="262.8" x2="289.1" y2="301.4"/>
	<rect x="233.7" y="49.8" class="st1" width="210.7" height="218.5"/>
	<line class="st5" x1="208.2" y1="362.8" x2="266" y2="362.8"/>
	<g>
		<g>
			<rect x="282.5" y="357.1" width="26.4" height="4.1"/>
		</g>
	</g>
	<g>
		<g>
			<rect x="282.5" y="365.2" width="26.4" height="4.1"/>
		</g>
	</g>
	<g>
		<g>
			<rect x="282.5" y="373.3" width="18.3" height="4.1"/>
		</g>
	</g>
	<g>
		<g>
			<rect x="282.5" y="381.4" width="18.3" height="4.1"/>
		</g>
	</g>
	<g>
		<g>
			<path d="M389.8,362.3l-8.1-16.2c-0.5-1-1.7-1.4-2.7-0.9l0,0l-16.2,8.1c-1,0.5-1.4,1.7-0.9,2.7s1.7,1.4,2.7,0.9l11.8-5.9l-3.2,9.2
				c-14.1,40.2-50.4,68.3-92.8,72l0.3,4.1c44-3.8,81.7-33.1,96.3-74.7l3.3-9.4l6,11.9c0.5,1,1.7,1.4,2.7,0.9
				C389.9,364.5,390.3,363.3,389.8,362.3z"/>
		</g>
	</g>
	<g>
		<g>
			<path class="st6" d="M385.9,383.5h-14.2c-1.1,0-2,0.9-2,2v71c0,1.1,0.9,2,2,2h14.2c1.1,0,2-0.9,2-2v-71
				C388,384.4,387.1,383.5,385.9,383.5z M383.9,454.5h-10.1v-67h10.1V454.5z"/>
		</g>
		<path class="st6" d="M324.6,383.5"/>
		<path class="st6" d="M300.2,383.5"/>
	</g>
	<line class="st5" x1="104.1" y1="243.3" x2="104.1" y2="185.5"/>
	<polyline class="st7" points="46.6,183.9 46.6,117.9 188.5,117.9 188.5,183.9 46.6,183.9 	"/>
	<polyline class="st3" points="108.7,178 94.9,163.1 89.1,171 84.6,167.7 94.4,154.3 107.5,168.5 128.1,131.4 143.8,156.6 
		162.2,123.7 167.1,126.5 144.1,167.6 128.4,142.4 108.7,178 	"/>
	<rect x="54" y="129.2" class="st3" width="18" height="7.3"/>
	<rect x="54" y="147.2" class="st3" width="18" height="7.3"/>
	<rect x="54" y="165.2" class="st3" width="18" height="7.3"/>
	<g>
		<g>
			<rect x="372.8" y="386.2" class="st3" width="12.1" height="71.4"/>
		</g>
	</g>
	<g>
		<g>
			<rect x="349" y="415.9" class="st3" width="16" height="41.6"/>
		</g>
	</g>
	<g>
		<g>
			<rect x="326.9" y="426.5" class="st3" width="16.5" height="31.1"/>
		</g>
	</g>
	<g>
		<g>
			<rect x="283.3" y="442" class="st3" width="16.5" height="15.6"/>
		</g>
	</g>
	<g>
		<g>
			<rect x="306.1" y="432.2" class="st3" width="14.6" height="25.3"/>
		</g>
	</g>
</g>
</svg>
