<?xml version="1.0" encoding="utf-8"?>
<!-- Generator: Adobe Illustrator 22.0.0, SVG Export Plug-In . SVG Version: 6.00 Build 0)  -->
<svg version="1.1" id="圖層_1" xmlns="http://www.w3.org/2000/svg" xmlns:xlink="http://www.w3.org/1999/xlink" x="0px" y="0px"
	 viewBox="0 0 512 512" style="enable-background:new 0 0 512 512;" xml:space="preserve">
<style type="text/css">
	.st0{fill:#EBAD00;}
	.st1{fill:none;stroke:#000000;stroke-width:16;stroke-miterlimit:10;}
</style>
<rect x="249" y="341.8" class="st0" width="192.4" height="106.1"/>
<rect x="265.5" y="148.2" class="st0" width="87.7" height="70.9"/>
<rect x="26.2" y="65.5" class="st0" width="181.8" height="69.6"/>
<g>
	<circle class="st0" cx="102.8" cy="265.6" r="17"/>
	<ellipse class="st0" cx="104.2" cy="301.6" rx="27.6" ry="23.2"/>
	<path d="M172.4,274.8v-8.5h-13c-2.1-27.2-23.7-48.8-51-51v-13h-8.5v13c-2.9,0.2-5.7,0.6-8.5,1.3l-8.5,2.7
		c-19.2,8-32.3,26.1-33.9,46.9h-13v8.5h13c2,27.3,23.7,48.9,50.9,51v13h8.5v-13c27.3-2,48.9-23.7,50.9-51L172.4,274.8L172.4,274.8z
		 M99.9,309v8.3c-5.9-0.5-11.7-2.2-17-4.9v-7.7c0-11.8,9.5-21.3,21.3-21.3s21.3,9.5,21.3,21.3v7.7c-5.3,2.7-11.1,4.4-17,4.9V309
		H99.9z M91.4,262c0-7,5.7-12.8,12.8-12.8s12.8,5.7,12.8,12.8c0,7-5.7,12.8-12.8,12.8S91.4,269.1,91.4,262z M135.4,305.5
		c-0.4,0.4-0.9,0.7-1.4,1.1v-2c0-11.1-6.2-21.3-16.1-26.5c6.8-5.7,9.3-15.2,6.3-23.6c-3-8.4-11.1-14-20-14s-16.9,5.6-20,14
		c-3,8.4-0.5,17.8,6.3,23.6c-9.9,5.1-16.1,15.3-16.1,26.5v2c-0.4-0.4-0.9-0.7-1.4-1.1c-8.8-7.9-14.3-18.9-15.4-30.7h8.3v-8.5h-8.4
		c2.1-22.5,19.9-40.3,42.4-42.4v8.3h8.5v-8.3c22.5,2.1,40.3,19.9,42.4,42.4h-8.3v8.5h8.3C149.8,286.7,144.3,297.6,135.4,305.5
		L135.4,305.5z"/>
</g>
<path d="M438.5,455.4c4.7,0,8.5-3.8,8.5-8.5V344.5c0-4.7-3.8-8.5-8.5-8.5H250.8c-4.7,0-8.5,3.8-8.5,8.5v102.4c0,4.7,3.8,8.5,8.5,8.5
	H438.5z M259.3,353H430v85.3H259.3V353z"/>
<path d="M276.3,370.1h34.1v17.1h-34.1V370.1z"/>
<path d="M327.5,370.1h85.3v17.1h-85.3V370.1z"/>
<path d="M276.3,404.2h136.5v17.1H276.3V404.2z"/>
<path class="st0" d="M34.5,387.2H171v17.1H34.5V387.2z"/>
<path class="st0" d="M34.5,418.1H171v17.1H34.5V418.1z"/>
<path class="st0" d="M34.5,449.1H171v17.1H34.5V449.1z"/>
<g>
	
		<ellipse transform="matrix(8.600842e-02 -0.9963 0.9963 8.600842e-02 70.3139 633.6801)" class="st0" cx="380.5" cy="278.5" rx="7.8" ry="8.2"/>
	<g>
		
			<ellipse transform="matrix(8.600842e-02 -0.9963 0.9963 8.600842e-02 108.0178 639.5226)" class="st0" cx="402.6" cy="260.9" rx="25.4" ry="26.6"/>
		<path d="M488.5,159.4c-3.6,0-7,1.3-9.7,3.7l-40.2,35.5l-9.2,7l-24.9,23.1c-17.1,1-30.4,15.1-30.4,32.2v8.2c0,4.6-2.6,8.8-6.6,10.8
			c-1.9,1-2.9,3.1-2.4,5.2c0.5,2.1,2.4,3.6,4.5,3.6h32.3c17.1,0,31.2-13.4,32.2-30.4l65.6-74.4c3.8-4.3,4.8-10.5,2.4-15.7
			C499.4,162.8,494.2,159.4,488.5,159.4z M401.6,279.3h-21.1c1.7-3.1,2.6-6.7,2.6-10.3v-8.2c0-12,9.2-22,21.2-23l20.2,20.2
			C423.7,270.1,413.7,279.3,401.6,279.3z M492.5,177.7l-63.4,71.9L413,233.4l71.9-63.4c2.2-1.9,5.4-1.8,7.4,0.2
			C494.3,172.3,494.4,175.5,492.5,177.7z"/>
	</g>
</g>
<path d="M14.6,65.5v68.3c0,4.7,3.8,8.5,8.5,8.5H134V185h17.1v-42.7h59.7c4.7,0,8.5-3.8,8.5-8.5V65.5c0-4.7-3.8-8.5-8.5-8.5H23.1
	C18.4,57,14.6,60.8,14.6,65.5z M31.6,74h170.7v51.2H31.6V74z"/>
<path d="M48.7,91.1h42.7v17.1H48.7V91.1z"/>
<path d="M108.4,91.1h76.8v17.1h-76.8V91.1z"/>
<path class="st0" d="M34.5,356.2h76.8v17.1H34.5V356.2z"/>
<path d="M267.8,227.7h85.3c4.7,0,8.5-3.8,8.5-8.5v-68.3c0-4.7-3.8-8.5-8.5-8.5h-85.3c-4.7,0-8.5,3.8-8.5,8.5v68.3
	C259.3,223.8,263.1,227.7,267.8,227.7z M276.3,159.4h68.3v51.2h-68.3V159.4z"/>
<path d="M293.4,176.5h34.1v17.1h-34.1V176.5z"/>
<path class="st1" d="M178.6,483.2H29.7c-6.6,0-12-5.4-12-12V197.1c0-6.6,5.4-12,12-12h148.9c6.6,0,12,5.4,12,12v274.1
	C190.6,477.8,185.2,483.2,178.6,483.2z"/>
<line class="st1" x1="190.6" y1="399.1" x2="242.3" y2="399.1"/>
<line class="st1" x1="190.6" y1="283.3" x2="325" y2="283.3"/>
<line class="st1" x1="320" y1="226.8" x2="320" y2="291"/>
</svg>
