<?xml version="1.0" encoding="utf-8"?>
<!-- Generator: Adobe Illustrator 22.0.0, SVG Export Plug-In . SVG Version: 6.00 Build 0)  -->
<svg version="1.1" id="圖層_1" xmlns="http://www.w3.org/2000/svg" xmlns:xlink="http://www.w3.org/1999/xlink" x="0px" y="0px"
	 viewBox="0 0 512 512" style="enable-background:new 0 0 512 512;" xml:space="preserve">
<style type="text/css">
	.st0{fill:#E6AF2E;}
	.st1{stroke:#FFFFFF;}
	.st2{fill:#EBAD00;}
	.st3{fill:#F9F9F9;}
	.st4{fill:none;stroke:#000000;stroke-width:12;stroke-miterlimit:10;}
	.st5{fill:none;stroke:#000000;stroke-width:2;stroke-miterlimit:10;}
</style>
<g id="surface1">
	<g>
		<rect x="70.4" y="99.8" class="st0" width="117.9" height="67.3"/>
		<path d="M64.5,174.2h127c3.5,0,6.3-2.5,6.3-5.6v-67.9c0-3.1-2.8-5.6-6.3-5.6h-127c-3.5,0-6.3,2.5-6.3,5.6v67.9
			C58.2,171.7,61,174.2,64.5,174.2z M70.9,106.3h114.3v56.6H70.9V106.3z"/>
		<path class="st1" d="M96.6,114.4l-12.2,12.7c-2.4,2.5-2.4,6.5,0,9l12.2,12.7l8.7-9l-7.9-8.2l7.9-8.2L96.6,114.4z"/>
		<path class="st1" d="M154,114.4l-8.6,8.9l7.9,8.2l-7.9,8.2l8.7,9l12.2-12.7c2.4-2.5,2.4-6.5,0-9L154,114.4z"/>
		<path class="st1" d="M113.4,148.6l12.2-38.1l11.6,4L125,152.6L113.4,148.6z"/>
	</g>
	<path class="st1" d="M623,498.5"/>
	<path class="st1" d="M623,522.8"/>
	<g>
		<rect x="311.2" y="72.3" class="st2" width="122.9" height="83.3"/>
		<path class="st1" d="M436.7,71.3h-128c-2.1,0-3.7,1.7-3.7,3.9v78.3c0,2.2,1.7,3.9,3.7,3.9h127.9c2.1,0,3.7-1.7,3.7-3.9V75.2
			C440.4,73,438.7,71.3,436.7,71.3z M432.9,149.6H312.5v-9.5l33.8-21.1l32.9,22.2c1.1,0.8,2.6,0.8,3.7,0.2l27.2-14.7l22.7,13.5
			V149.6z M432.9,131.1l-20.7-12.3c-1.1-0.6-2.5-0.7-3.6-0.1l-27.1,14.6l-33.1-22.3c-1.2-0.8-2.7-0.8-4,0L312.5,131V79.2h120.4
			L432.9,131.1L432.9,131.1z"/>
		<path class="st1" d="M393.4,114.4c7.3,0,13.2-6.1,13.2-13.7c0-7.6-5.9-13.7-13.2-13.7s-13.2,6.1-13.2,13.7
			S386.1,114.4,393.4,114.4z M393.4,94.8c3.1,0,5.6,2.6,5.6,5.9c0,3.3-2.5,5.9-5.6,5.9s-5.6-2.6-5.6-5.9
			C387.7,97.4,390.3,94.8,393.4,94.8z"/>
		<path class="st3" d="M393.4,109.6L393.4,109.6c-4.8,0-8.6-4-8.6-8.9l0,0c0-5,3.8-8.9,8.6-8.9l0,0c4.8,0,8.6,4,8.6,8.9l0,0
			C402,105.6,398.1,109.6,393.4,109.6z"/>
	</g>
</g>
<path class="st4" d="M229.7,481.5H20.9c-6.6,0-12-5.4-12-12V62.3c0-6.6,5.4-12,12-12h208.8c6.6,0,12,5.4,12,12v407.2
	C241.7,476.1,236.3,481.5,229.7,481.5z"/>
<path class="st4" d="M490.5,482.6H254.9c-6.6,0-12-5.4-12-12V63.3c0-6.6,5.4-12,12-12h235.6c6.6,0,12,5.4,12,12v407.2
	C502.5,477.2,497.1,482.6,490.5,482.6z"/>
<line class="st4" x1="10.1" y1="221.5" x2="242.9" y2="221.5"/>
<line class="st4" x1="17.4" y1="331.3" x2="241.7" y2="329.6"/>
<g>
	<g>
		<rect x="295.6" y="278.5" class="st2" width="150.2" height="14.3"/>
	</g>
</g>
<g>
	<g>
		<rect x="295.6" y="306.9" class="st2" width="150.2" height="14.3"/>
	</g>
</g>
<g>
	<g>
		<rect x="295.6" y="249.9" class="st2" width="104" height="14.3"/>
	</g>
</g>
<g>
	<g>
		<rect x="295.6" y="341.3" class="st2" width="104" height="14.3"/>
	</g>
</g>
<g>
	<rect x="295.6" y="371.1" class="st2" width="168.8" height="69.5"/>
</g>
<g>
	<g>
		<g>
			<g>
				<path d="M54.3,366.5c-2.6,0-4.8-1.6-4.8-3.7c0-0.3-0.3-0.5-0.7-0.5s-0.7,0.2-0.7,0.5c0,2.6,2.8,4.7,6.1,4.7
					c3.4,0,6.1-2.1,6.1-4.7s-2.8-4.7-6.1-4.7c-2.6,0-4.8-1.6-4.8-3.7s2.1-3.7,4.8-3.7s4.8,1.6,4.8,3.7c0,0.3,0.3,0.5,0.7,0.5
					s0.7-0.2,0.7-0.5c0-2.6-2.8-4.7-6.1-4.7s-6.1,2.1-6.1,4.7s2.8,4.7,6.1,4.7c2.6,0,4.8,1.6,4.8,3.7
					C59,364.8,56.9,366.5,54.3,366.5z"/>
				<path d="M39.9,367.5c3.4,0,6.1-2.1,6.1-4.7v-12.6c0-0.3-0.3-0.5-0.7-0.5s-0.7,0.2-0.7,0.5v12.6c0,2-2.1,3.7-4.8,3.7
					s-4.8-1.6-4.8-3.7c0-0.3-0.3-0.5-0.7-0.5c-0.4,0-0.7,0.2-0.7,0.5C33.8,365.4,36.5,367.5,39.9,367.5z"/>
			</g>
		</g>
	</g>
	<rect x="22" y="343.4" class="st5" width="46.3" height="28.7"/>
</g>
<g>
	<path d="M33.9,253c4.1,0,5.5-1.9,5.5-1.9l-2.3-1c0,0-0.9,1-2.9,1s-3.5-1.7-3.5-4.2c0-2.3,1.7-3.5,3.5-3.5c1.4,0,2.6,0.8,2.6,0.8
		l2.3-1.2c0,0-2-1.5-4.9-1.5c-3.2,0-6.4,1.7-6.4,5.4C27.8,250.5,30.4,253,33.9,253z M47.2,250.9c-0.9,0.2-2,0-2.9-0.8l-2.3,1
		c1.2,1.2,2.9,1.9,4.6,1.9c0.3,0,0.9,0,1.2-0.2c2-0.4,3.2-1.5,3.2-3.1c0-2.3-2.3-3.1-3.8-3.5c-1.4-0.6-2-0.8-2-1.5s0.3-1.4,1.7-1.4
		c0.9,0,1.7,0.8,1.7,0.8l2.3-1.2c-0.6-0.6-2-1.5-4.1-1.5c-2.6,0-4.6,1.2-4.6,3.1c0,2.1,2,2.9,3.5,3.5c1.7,0.4,2.3,0.8,2.3,1.7
		C48.1,250.3,48.1,250.9,47.2,250.9z M58.8,250.9c-0.9,0.2-2,0-2.9-0.8l-2.3,1c1.2,1.2,2.9,1.9,4.6,1.9c0.3,0,0.9,0,1.2-0.2
		c2-0.4,3.2-1.5,3.2-3.1c0-2.3-2.3-3.1-3.8-3.5c-1.4-0.6-2-0.8-2-1.5s0.3-1.4,1.7-1.4c0.9,0,1.7,0.8,1.7,0.8l2.3-1.2
		c-0.6-0.6-2-1.5-4.1-1.5c-2.6,0-4.6,1.2-4.6,3.1c0,2.1,2,2.9,3.5,3.5c1.7,0.4,2.3,0.8,2.3,1.7C59.7,250.3,59.7,250.9,58.8,250.9z"
		/>
	<rect x="22" y="232.8" class="st5" width="46.3" height="28.7"/>
</g>
<g>
	<g>
		<rect x="295.6" y="185.8" class="st2" width="104" height="14.3"/>
	</g>
</g>
<rect x="83.3" y="252" class="st2" width="21.3" height="8.6"/>
<rect x="83.3" y="267.9" class="st2" width="21.3" height="8.6"/>
<rect x="83.3" y="284.6" class="st2" width="21.3" height="8.6"/>
<rect x="89.8" y="371.5" class="st2" width="93.8" height="4.3"/>
<rect x="89.1" y="359.1" class="st2" width="93.8" height="4.3"/>
<rect x="123" y="432.5" class="st2" width="60.6" height="4.4"/>
<g>
	<g>
		<rect x="116.5" y="263.7" class="st2" width="57.9" height="4.4"/>
	</g>
</g>
<g>
	<g>
		<rect x="145.4" y="271.1" class="st2" width="57.9" height="4.4"/>
	</g>
</g>
<g>
	<g>
		<rect x="116.5" y="252.6" class="st2" width="57.9" height="4.4"/>
	</g>
</g>
<g>
	<g>
		<rect x="116.5" y="278.6" class="st2" width="57.9" height="4.4"/>
	</g>
</g>
<g>
	<g>
		<rect x="116.5" y="293.6" class="st2" width="57.9" height="4.4"/>
	</g>
</g>
<g>
	<g>
		<rect x="88.8" y="432.5" class="st2" width="57.9" height="4.4"/>
	</g>
</g>
<g>
	<g>
		<rect x="125.6" y="401.7" class="st2" width="56" height="4.4"/>
	</g>
</g>
<g>
	<g>
		<rect x="124.3" y="393.1" class="st2" width="11.7" height="4.3"/>
	</g>
</g>
<g>
	<g>
		<rect x="169.9" y="410.5" class="st2" width="11.7" height="4.3"/>
	</g>
</g>
<g>
	<g>
		<rect x="90.3" y="421" class="st2" width="11.7" height="4.3"/>
	</g>
</g>
<g>
	<g>
		<rect x="90.3" y="411.4" class="st2" width="11.7" height="4.3"/>
	</g>
</g>
<g>
	<g>
		<rect x="106.1" y="384.9" class="st2" width="11.7" height="4.3"/>
	</g>
</g>
<g>
	<g>
		<rect x="145.4" y="286.1" class="st2" width="57.9" height="4.4"/>
	</g>
</g>
<g>
	<g>
		<rect x="90.3" y="401.7" class="st2" width="33.6" height="4.4"/>
	</g>
</g>
<g>
	<g>
		<rect x="124.3" y="410.5" class="st2" width="29" height="4.4"/>
	</g>
</g>
<g>
	<g>
		<rect x="124.3" y="419.4" class="st2" width="57.9" height="4.4"/>
	</g>
</g>
</svg>
