<?xml version="1.0" encoding="utf-8"?>
<!-- Generator: Adobe Illustrator 22.0.0, SVG Export Plug-In . SVG Version: 6.00 Build 0)  -->
<svg version="1.1" id="圖層_1" xmlns="http://www.w3.org/2000/svg" xmlns:xlink="http://www.w3.org/1999/xlink" x="0px" y="0px"
	 viewBox="0 0 768 1366" style="enable-background:new 0 0 768 1366;" xml:space="preserve">
<style type="text/css">
	.st0{fill:none;stroke:#00AADA;stroke-width:20;stroke-miterlimit:10;}
	.st1{fill:#00ACE7;}
</style>
<line class="st0" x1="404.3" y1="944.5" x2="404.3" y2="386.3"/>
<g>
	<path class="st1" d="M404.3,377c-67.6,0-122.6,128-122.6,285.9c0,106.5,25,199.4,62,248.7v240c0,28.9,27.2,52.5,60.5,52.5
		s60.5-23.6,60.5-52.5v-240c37.1-49.3,62.1-142.1,62.1-248.7C526.8,505,471.9,377,404.3,377z M404.3,1168.1
		c-17,0-30.7-13.5-30.7-30.2c0-16.7,13.7-30.2,30.7-30.2s30.7,13.5,30.7,30.2C435,1154.6,421.3,1168.1,404.3,1168.1z M448.7,883.3
		c-11.9,65.6-28.7,133.1-47.2,133.1c-15.5,0-30.6-61.6-42.7-134.5c-32.7-42.1-55.1-128.1-55.1-227.4c0-132.8,40.1-241.9,91.3-253.8
		c2.1-0.7,4.3-1.1,6.5-1.1c0.4,0,0.8,0,1.2,0.1c0.5,0,1.1-0.1,1.6-0.1c55.6,0,100.6,114.1,100.6,254.8
		C504.9,754.9,482,841.8,448.7,883.3z"/>
	<path class="st1" d="M471.1,649.8c0-136.7-30.6-247.8-68.4-250.1c-2.6,0.1-5.1,0.5-7.6,1c-35.4,11.7-63.1,118.7-63.1,249
		c0,19.7,10.9,135.7,26.9,232.1c7.8,10.1,16.3,17.6,25.1,22.3c-8.9-62.5-15.1-140.1-15.1-140.1c0-4.6-2.1-75.4-2.1-109.6
		c0-136.3,15.6-246.8,34.8-246.8s34.8,110.5,34.8,246.8c0,34.1-2.1,104.9-2.1,109.6c0,0-4.3,78.5-11.6,141.2
		c9.2-4.3,18-11.7,26.1-21.9c11.3-62,18.2-122.3,18.2-122.3C466.9,756.3,471.1,684.4,471.1,649.8z"/>
	<path class="st1" d="M404.3,981.4c7.2,0,13.4-34.6,18.3-76.2c-5.9,2.8-12,4.2-18.3,4.2c-7,0-13.8-1.8-20.4-5.2
		C389.9,946.2,397.1,981.4,404.3,981.4z"/>
</g>
<rect x="354" y="876" class="st1" width="104" height="169"/>
</svg>
