<?xml version="1.0" encoding="utf-8"?>
<!-- Generator: Adobe Illustrator 22.0.0, SVG Export Plug-In . SVG Version: 6.00 Build 0)  -->
<svg version="1.1" id="圖層_1" xmlns="http://www.w3.org/2000/svg" xmlns:xlink="http://www.w3.org/1999/xlink" x="0px" y="0px"
	 viewBox="0 0 768 1366" style="enable-background:new 0 0 768 1366;" xml:space="preserve">
<style type="text/css">
	.st0{fill:none;stroke:#00AADA;stroke-width:20;stroke-miterlimit:10;}
	.st1{fill:#00ACE7;}
</style>
<line class="st0" x1="404.3" y1="944.5" x2="400.6" y2="386.3"/>
<g>
	<path class="st1" d="M403,377c-67.6,0-122.6,128-122.6,285.9c0,106.4,24.9,199.1,61.8,248.4c0.1,0.1,0.2,0.3,0.2,0.5v239.7
		c0,28.9,27.2,52.5,60.5,52.5s60.5-23.6,60.5-52.5V911.9c0-0.2,0.1-0.4,0.2-0.5c37-49.3,61.9-142.1,61.9-248.4
		C525.5,505,470.6,377,403,377z M403,1168.1c-17,0-30.7-13.5-30.7-30.2c0-16.7,13.7-30.2,30.7-30.2s30.7,13.5,30.7,30.2
		C433.7,1154.6,419.9,1168.1,403,1168.1z M447.5,883.1c-0.1,0.1-0.1,0.2-0.2,0.4c-11.9,65.5-28.7,132.9-47.2,132.9
		c-15.5,0-30.5-61.5-42.7-134.3c0-0.1-0.1-0.3-0.2-0.4c-32.6-42.1-55-128-55-227.2c0-132.8,47.1-241.9,98.3-253.8
		c2.1-0.7-2.2-1.1,0-1.1c0.4,0-0.4,0,0,0.1c0.5,0-0.5-0.1,0-0.1c55.6,0,102.9,114.1,102.9,254.8
		C503.6,754.8,480.7,841.5,447.5,883.1z"/>
	<path class="st1" d="M472.6,643.7c0-136.6-34.1-247.7-71.9-250.1c0,0,0,0,0,0c-2.5,0.1,2.5,0.4,0,1c0,0,0,0,0,0
		c-35.3,11.8-67.3,118.8-67.3,249c0,19.6,10.9,135.6,26.9,231.9c0,0.1,0.1,0.3,0.2,0.4c7.4,9.4,15.2,16.6,23.5,21.3
		c0.6,0.3,1.4-0.2,1.3-0.9c-8.6-61.5-14.7-136.7-14.9-138.4c0,0,0,0,0-0.1c0-4.9-2.1-75.5-2.1-109.5c0-136.3,13.3-246.8,32.5-246.8
		s37.1,110.5,37.1,246.8c0,34.1-2.1,104.9-2.1,109.6c0,0-4.2,77.2-11.5,139.6c-0.1,0.7,0.6,1.2,1.2,0.9c8.6-4.3,16.9-11.5,24.6-21
		c0.1-0.1,0.2-0.3,0.2-0.4c11.1-61,18-120.3,18.2-122.1c0,0,0-0.1,0-0.1C468.4,749.8,472.6,678.2,472.6,643.7z"/>
	<path class="st1" d="M404.3,981.4c7.1,0,13.2-33.8,18.1-74.7c0.1-0.7-0.6-1.2-1.2-0.9c-5.5,2.4-11.1,3.6-16.9,3.6
		c-6.5,0-12.8-1.5-18.9-4.5c-0.6-0.3-1.3,0.2-1.2,0.9C390.1,947.1,397.2,981.4,404.3,981.4z"/>
</g>
<rect x="354" y="876" class="st1" width="104" height="169"/>
</svg>
