<?xml version="1.0" encoding="utf-8"?>
<!-- Generator: Adobe Illustrator 22.0.0, SVG Export Plug-In . SVG Version: 6.00 Build 0)  -->
<svg version="1.1" id="圖層_1" xmlns="http://www.w3.org/2000/svg" xmlns:xlink="http://www.w3.org/1999/xlink" x="0px" y="0px"
	 viewBox="0 0 681 681" style="enable-background:new 0 0 681 681;" xml:space="preserve">
<style type="text/css">
	.st0{fill:#3E4149;}
	.st1{fill:#FAFAFA;}
</style>
<g>
	<path class="st0" d="M537.4,267.1l61.2,97.8l10.7-8.1c20.6-15.6,12.5-24.2,12.5-24.2c-11.6,0.4-12.9-7.9-12.9-7.9
		c-7.5-23-24.8-45.9-24.8-45.9c-14.5-16.9-33.4-21.8-33.4-21.8L537.4,267.1z"/>
</g>
<path class="st0" d="M500.8,241.2L602.5,133c1.7-1.8,4.5-1.7,7,0.1c2.6,1.8,4.3,5.1,4.3,8v4.6c0.2,35.5-9.9,65-29,85.3l-49.2,52.3
	c-2.2,2.3-6.1,1.5-8.9-1.9l-24.9-30.1C499.1,248,498.6,243.5,500.8,241.2z M574.9,219c14.3-15.2,23-36.1,25.5-61.1l-85.8,91.2
	l15,18.1L574.9,219z"/>
<g>
	<path class="st0" d="M90.6,552.1c-13.6,0-26.1-3.8-37.3-11.4c-2.1-1.4-3.2-3.3-3.4-5.9c-0.1-0.3-0.2-0.6-0.2-0.9
		c0-2.2,0.7-4.2,2.2-5.9l4.5-5.5c1.6-1.9,3.6-3,6.3-3.3c0.4,0,0.9,0,1.4,0c2,0,3.9,0.5,5.6,1.6c7.5,4.6,14.7,6.9,21.6,6.9
		c5.1,0,9-0.9,11.6-2.7s3.9-4.4,3.9-7.7c0-2.9-1.1-5.2-3.3-6.7s-6-3.5-11.4-5.8c-0.9-0.4-1.6-0.7-2-0.9l-15.3-6.4
		c-7-2.8-12.7-7-17.3-12.4s-6.8-12.2-6.8-20.2c0-10.1,4.1-18.6,12.2-25.5S81.3,429,93.8,429c11.7,0,22.2,3.2,31.7,9.7
		c2.1,1.5,3.2,3.5,3.4,6.3c0,0.3,0,0.6,0,0.9c0,2.2-0.7,4.2-2.2,5.9l-2.8,3.6c-1.5,1.9-3.5,3-6.1,3.4c-0.6,0.1-1.3,0.2-1.9,0.2
		c-1.9,0-3.7-0.5-5.5-1.4c-5.3-2.8-10.9-4.2-16.7-4.2c-4.5,0-8,0.9-10.5,2.7c-2.5,1.8-3.8,4.2-3.8,7.3c0,1.3,0.3,2.4,0.9,3.4
		s1.2,1.9,2,2.6c0.7,0.7,2,1.5,3.7,2.4s3.2,1.6,4.4,2c1.2,0.5,3,1.2,5.5,2.3c0.7,0.2,1.3,0.4,1.7,0.6l14.8,5.9
		c15.6,6.3,23.4,17.1,23.4,32.7c0,5-1,9.7-3,14.2s-4.9,8.4-8.7,11.9c-3.8,3.4-8.6,6.1-14.4,8.1S97.6,552.1,90.6,552.1z"/>
	<path class="st0" d="M185,549.9c-2.6,0-4.8-0.9-6.6-2.7s-2.7-4-2.7-6.5v-85c0-0.7-0.4-1.1-1.3-1.1h-21.7c-2.6,0-4.8-0.9-6.6-2.7
		c-1.8-1.8-2.7-4-2.7-6.5V440c0-2.5,0.9-4.7,2.7-6.5s4-2.7,6.6-2.7h74.7c2.5,0,4.7,0.9,6.5,2.7c1.8,1.8,2.7,4,2.7,6.5v5.3
		c0,2.5-0.9,4.7-2.7,6.5s-4,2.7-6.5,2.7h-22c-0.7,0-1.1,0.4-1.1,1.1v85c0,2.5-0.9,4.7-2.7,6.5s-4,2.7-6.5,2.7H185V549.9z"/>
	<path class="st0" d="M302.7,552.1c-16,0-28.1-4.7-36.2-14.2s-12.1-24.1-12.1-43.9v-54c0-2.5,0.9-4.7,2.7-6.5c1.8-1.8,4-2.7,6.5-2.7
		h10c2.6,0,4.8,0.9,6.6,2.7c1.8,1.8,2.7,4,2.7,6.5v56.9c0,11,1.6,18.9,4.8,23.6c3.2,4.7,8.2,7,15,7s11.8-2.4,15.2-7.1
		c3.3-4.7,5-12.6,5-23.5V440c0-2.5,0.9-4.7,2.7-6.5c1.8-1.8,4-2.7,6.5-2.7h9.1c2.6,0,4.8,0.9,6.6,2.7c1.8,1.8,2.7,4,2.7,6.5v54
		c0,19.9-3.9,34.6-11.8,44C330.6,547.4,318.7,552.1,302.7,552.1z"/>
	<path class="st0" d="M386.2,549.9c-2.5,0-4.7-0.9-6.5-2.7s-2.7-4-2.7-6.5V440c0-2.5,0.9-4.7,2.7-6.5c1.8-1.8,4-2.7,6.5-2.7h25
		c19,0,33.8,4.8,44.4,14.5c10.6,9.6,15.9,24.5,15.9,44.5c0,10.1-1.4,19-4.2,26.8c-2.8,7.8-6.9,14.1-12.1,18.9
		c-5.3,4.8-11.4,8.5-18.5,10.9s-15.1,3.6-23.9,3.6L386.2,549.9L386.2,549.9z M405.6,525.7c0,0.8,0.4,1.3,1.3,1.3h2.7
		c10.4,0,18.5-2.9,24.2-8.6c5.7-5.7,8.6-15.3,8.6-28.6c0-6.9-0.8-12.7-2.3-17.6s-3.9-8.6-7-11.2s-6.5-4.5-10.2-5.6
		c-3.8-1.1-8.2-1.7-13.3-1.7h-2.7c-0.8,0-1.3,0.4-1.3,1.1L405.6,525.7L405.6,525.7z"/>
	<path class="st0" d="M502.8,549.9c-2.5,0-4.7-0.9-6.5-2.7s-2.7-4-2.7-6.5V440c0-2.5,0.9-4.7,2.7-6.5c1.8-1.8,4-2.7,6.5-2.7H513
		c2.6,0,4.8,0.9,6.6,2.7c1.8,1.8,2.7,4,2.7,6.5v100.6c0,2.5-0.9,4.7-2.7,6.5s-4,2.7-6.6,2.7h-10.2V549.9z"/>
</g>
<g>
	<g>
		<path class="st1" d="M281.3,364.1c-39.5,0-71.6-33-71.6-73.6s32.1-73.6,71.6-73.6s71.6,33,71.6,73.6S320.8,364.1,281.3,364.1z
			 M281.3,225.2c-35.1,0-63.7,29.3-63.7,65.4s28.6,65.4,63.7,65.4s63.7-29.3,63.7-65.4S316.4,225.2,281.3,225.2z"/>
		<path class="st1" d="M282.9,328.4c-23,0-41.8-18.7-41.8-41.8c0-23,18.7-41.8,41.8-41.8c23,0,41.8,18.7,41.8,41.8
			C324.7,309.7,305.9,328.4,282.9,328.4z M282.9,251.8c-19.2,0-34.9,15.6-34.9,34.9c0,19.2,15.6,34.9,34.9,34.9
			c19.2,0,34.9-15.6,34.9-34.9C317.8,267.4,302.1,251.8,282.9,251.8z"/>
		<path class="st1" d="M289.8,314.5c-1.9,0-3.5-1.5-3.5-3.5c0-1.9,1.5-3.5,3.5-3.5c9.4,0,17-7.6,17-17c0-1.9,1.5-3.5,3.5-3.5
			c1.9,0,3.5,1.5,3.5,3.5C313.7,303.7,303,314.5,289.8,314.5z"/>
	</g>
</g>
<g>
	<path class="st1" d="M603.5,552.8c-33.8,0-61.3-28.2-61.3-62.9s27.5-62.9,61.3-62.9s61.3,28.2,61.3,62.9S637.4,552.8,603.5,552.8z
		 M603.5,433.8c-30.1,0-54.5,25.1-54.5,56s24.5,56,54.5,56c30.1,0,54.5-25.1,54.5-56S633.6,433.8,603.5,433.8z"/>
	<path class="st1" d="M604.9,522.2c-19.7,0-35.8-16-35.8-35.8c0-19.7,16-35.8,35.8-35.8c19.7,0,35.8,16,35.8,35.8
		S624.6,522.2,604.9,522.2z M604.9,456.6c-16.5,0-29.8,13.4-29.8,29.8c0,16.5,13.4,29.8,29.8,29.8c16.5,0,29.8-13.4,29.8-29.8
		C634.8,470,621.4,456.6,604.9,456.6z"/>
	<path class="st1" d="M610.8,510.3c-1.6,0-3-1.3-3-3c0-1.6,1.3-3,3-3c8,0,14.5-6.5,14.5-14.5c0-1.6,1.3-3,3-3c1.6,0,3,1.3,3,3
		C631.3,501.1,622.1,510.3,610.8,510.3z"/>
</g>
<g>
	<path class="st0" d="M144.4,363.9c-6.8,0-12.3-4.3-12.3-9.6v-121c0-5.3,5.5-9.6,12.3-9.6s12.2,4.3,12.2,9.6v121
		C156.6,359.6,151.1,363.9,144.4,363.9z"/>
	<path class="st0" d="M143.6,237.3c-33.8,0-61.3-21.6-61.3-48.2c0-5.3,5.5-9.6,12.3-9.6h98c6.8,0,12.3,4.3,12.3,9.6
		C204.8,215.7,177.4,237.3,143.6,237.3z M108.9,198.8C114,210,127.6,218,143.6,218s29.6-8.1,34.7-19.3h-69.4V198.8z"/>
	<path class="st0" d="M94.6,198.8c-6.8,0-12.3-4.3-12.3-9.6v-67.4c0-5.3,5.5-9.6,12.3-9.6s12.2,4.3,12.2,9.6v67.4
		C106.8,194.5,101.3,198.8,94.6,198.8z"/>
	<path class="st0" d="M192.6,198.8c-6.8,0-12.2-4.3-12.2-9.6v-67.4c0-5.3,5.5-9.6,12.2-9.6c6.8,0,12.3,4.3,12.3,9.6v67.4
		C204.8,194.5,199.4,198.8,192.6,198.8z"/>
</g>
<g>
	<path class="st0" d="M402.4,364c-3.6,0-6.6-1.3-9-3.8s-3.7-5.5-3.7-8.9v-99.9c0-3.4,1.2-6.4,3.7-8.9c2.4-2.5,5.4-3.8,9-3.8h6.4
		c3.6,0,6.7,1.2,9.5,3.7c2.7,2.4,4.3,5.4,4.7,9l1.1,8.8c0,0.3,0.2,0.4,0.5,0.4c0.4,0,0.6-0.1,0.8-0.4c4.4-8,9.8-14.1,16.1-18.3
		c6.3-4.2,12.7-6.2,19.1-6.2c1,0,2,0,3,0c3.4,0.1,6.2,1.8,8.2,4.9c1.3,2.1,1.9,4.5,1.9,7.1c0,1-0.1,2-0.2,3l-1.7,8.8
		c-0.7,3.3-2.5,5.9-5.4,7.7c-2.7,1.9-5.8,2.8-9.2,2.8c-0.1,0-0.3,0-0.4,0c-0.3,0-0.6,0-1.1,0c-5,0-9.9,1.7-14.6,5
		c-4.7,3.4-8.7,8.6-11.8,15.8c-0.4,1-0.6,2.1-0.6,3.2v57.1c0,3.4-1.3,6.4-3.8,8.9s-5.5,3.8-8.9,3.8h-13.6V364z"/>
</g>
<g>
	<path class="st0" d="M509.2,364.5c-3,0-5.6-1.8-7.7-5.3c-2.2-3.5-3.3-7.7-3.3-12.5V152.3c0-4.8,1.1-9,3.3-12.5
		c2.2-3.5,4.7-5.3,7.7-5.3h12.1c3.1,0,5.7,1.8,7.8,5.3s3.2,7.7,3.2,12.5v194.4c0,4.8-1.1,9-3.2,12.5c-2.1,3.5-4.7,5.3-7.8,5.3H509.2
		z"/>
</g>
</svg>
